<?xml version="1.0" encoding="utf-8"?>
<!-- Generator: Adobe Illustrator 22.0.1, SVG Export Plug-In . SVG Version: 6.00 Build 0)  -->
<svg version="1.1" id="Layer_1" xmlns="http://www.w3.org/2000/svg" xmlns:xlink="http://www.w3.org/1999/xlink" x="0px" y="0px"
	 viewBox="0 0 800.1 497.4" style="enable-background:new 0 0 800.1 497.4;" xml:space="preserve">
<g>
	<path d="M323.8,323.6c10.7,47.8,25.7,92,50.1,133.2c0.4-3,0.8-5.9,1-8.9c2.1-26.7,4.3-53.4,6.1-80.2c0.2-3.2-1-6.7-2.3-9.7
		c-2.7-6-6.6-11.6-8.9-17.8c-3.6-9.7,0.3-15.5,10.5-15.8c13.3-0.4,26.6-0.4,40,0c10,0.3,14.4,8,10.1,17.1
		c-2.6,5.4-5.4,10.7-8.6,15.8c-2.5,3.9-2.9,7.8-2.5,12.3c2.2,26.2,4.1,52.5,6.2,78.7c0.2,2.8,0.6,5.5,1.5,8.4
		c23.6-41,39.3-84.8,48.9-131.7c4.8,1.4,8.9,2.5,12.9,3.9c19.7,7.2,39.4,14.3,59,21.7c31.4,11.9,47.1,35.7,50.3,68.3
		c1.2,12.4,1,25,1.1,37.4c0.2,20.1-21.7,41-38.5,40.5c-20.8-0.5-41.6,0.7-62.5,0.7c-79.8,0-159.6-0.1-239.4-0.2
		c-6.5,0-13-0.9-19.5-0.6c-15.5,0.8-36.3-17.6-37.7-36.3c-1.5-19.4-1.5-39,3.5-58.1c5.7-21.4,17.6-38.4,38.3-47.2
		C269.4,344,296,334.4,323.8,323.6z"/>
	<path d="M301.2,132.9c0-2.4,0-4.3,0-6.3c0.3-16.5-1.2-33.2,1.3-49.4c4-26.3,15.9-48.8,41.1-61.3c19.1-9.5,38.7-17.5,60.6-15.7
		c22.5,1.8,43.7,8.5,61.9,21.7c22.2,16,31.7,39.2,32.8,66c0.5,13,0.1,26,0.2,39c0,1.8,0,3.6,0,6.3c2.3,0,4.2-0.1,6.1,0
		c6.9,0.2,10,2.6,10.7,9.4c1.6,15.6,0.4,31-6.8,45.3c-2.7,5.4-5.8,11.1-13.8,10.1c-0.9-0.1-2.8,2.5-3.2,4.1
		c-5.6,22.7-16.4,43-31.1,60.9c-7.7,9.4-17.1,17.7-26.7,25.3c-5,4-11.7,6.5-18,7.8c-27.9,5.8-50.9-2.7-69.8-24.2
		c-15.6-17.8-27.4-37.6-35.7-59.6c-0.8-2-1.4-4.1-1.8-6.2c-0.8-5.1-1.9-9.1-8.6-9.2c-2.6-0.1-5.6-3.4-7.5-6
		c-5.8-8.1-7.7-17.6-8.7-27.3c-0.6-5.9-0.5-12-0.4-18c0.2-8.1,3.8-11.7,11.8-12.4C297.2,133.1,298.7,133,301.2,132.9z"/>
	<path d="M678.4,248.3c2.2,6.2,4.9,12.4,6.6,18.9c1,3.7,1.2,7.9,0.4,11.6c-3.4,14.9-12.5,26.7-21.8,38.3c-3.4,4.3-7.1,8.4-11,12.3
		c-0.9,0.9-3.8,1.2-4.4,0.5c-14.7-15.7-28.9-31.8-34.3-53.6c-1-3.9,0.2-6.9,1.8-10.4c2.5-5.4,3.9-11.4,6-17.8
		c-8.4-1.1-15.3-1.6-22.1-2.9c-12.9-2.3-25.1-6.5-36.2-13.6c-2-1.2-3.7-2.8-5.6-4.2c-3.6-2.8-4.3-5.7-1-9.6c7-8.1,7.3-17.6,4.8-27.4
		c-3.8-14.8-8.4-29.4-9-44.9c-1.2-31.9,4.3-61.9,25-87.2c5.2-6.3,12.2-11.2,18.6-16.4c2.2-1.8,5.5-3.2,8.2-3.3
		c8.9-0.1,15.6-4.6,22.8-8.8c11.1-6.5,23.4-6.6,35.9-4.1c46.7,9.2,80.8,48.2,84.3,95.9c1.3,17.9-0.4,35.1-5.7,52.3
		c-3.1,10-6.1,20.3-3.7,30.9c1,4.3,2.5,8.7,4.9,12.4c2.6,4,1.7,6.5-1.3,9.5c-9.9,9.7-22.3,14.5-35.3,17.5
		C697.6,246.1,688.6,246.9,678.4,248.3z"/>
	<path d="M82.1,172.7c-7.2,2-11-2.3-12.6-7.8c-2.6-9.2-4.9-18.7-6-28.2c-0.9-7.6,2-10.6,9.5-11.9c4.1-0.7,3.2-3.4,3.3-6
		c0.5-12.8,0.8-25.6,1.9-38.3c0.4-4.5,2.3-9,4.1-13.3c1.3-3.2,2.9-7.1,5.5-8.7c7-4.4,10.4-11.4,15.1-17.5
		c6.5-8.3,15.4-12.4,25.6-14.2c21-3.6,41.4-2.3,60.9,7c16.7,8,27.4,20.8,30.4,38.9c2.5,14.9,3.1,30.1,4.2,45.1c0.3,3.7,0.6,6,5,6.9
		c5.4,1.1,8,5,7.8,11.8c-0.3,10.7-2.5,21.2-7.6,30.8c-1.8,3.4-4.1,5.8-8.6,5.8c-1.3,0-3.5,2.2-3.9,3.8c-5.5,22.8-18.3,41-34.2,57.7
		c-15.9,16.8-48,17.2-64.6,0.4C100.6,217.5,88.1,197.5,82.1,172.7z"/>
	<path d="M168.9,357.5c15.4-30.7,24.6-63.4,32.1-98.1c31.4,13.4,63.8,23.7,90.4,48c-3.3,1.4-5,2.2-6.8,2.9
		c-16.4,6.4-33.2,12.1-49.3,19.3c-23.3,10.4-40,27.8-50.1,51.3c-2,4.7-3.3,9.8-5.3,14.5c-0.6,1.4-2.6,3-4,3
		c-49.3-0.2-98.6-0.5-147.9-1.2C15.3,397,3.5,385.2,1.4,371.2c-2.5-16.8-1.7-33.6,2.5-50.1c2.9-11.2,9.6-19.8,19.1-25.9
		c23-14.7,48.1-24.9,73.4-34.8c0.6-0.2,1.3-0.1,2.5-0.2c7.7,33.7,16.8,67,32.5,97.9c0.4,0,0.9-0.1,1.3-0.1c0.7-5.8,1.5-11.7,2-17.5
		c0.9-10.8,1.9-21.6,2.2-32.4c0.1-3.9-1.2-8-2.4-11.8c-1.1-3.4-3.3-6.5-4.8-9.9c-2.6-5.8-0.1-11.4,6.1-11.8
		c9.3-0.6,18.6-0.5,27.9,0.3c6.4,0.6,8.1,4.2,6.3,10.3c-0.7,2.5-1.6,5.2-3,7.4c-4.2,6.8-5,14-4,21.9c1.5,12.4,1.9,24.9,2.9,37.3
		c0.1,1.8,0.6,3.5,0.9,5.3C167.6,357.2,168.3,357.4,168.9,357.5z"/>
	<path d="M725.1,318.9c-0.4-17.7-4.5-33.4-15.3-48c2.1,0.2,3.4,0,4.5,0.4c17.1,6,34.5,11.2,51.1,18.4c20.6,8.9,31.7,25.6,33.7,48.2
		c1,11.7,1.8,23.2-0.9,34.8c-3.7,15.6-13.1,24.1-29.1,24.5c-32.1,0.8-64.3,1-96.4,1.3c-15.8,0.1-31.6,0-47.5,0.1
		c-2.8,0-4.3-0.5-5.3-3.7c-8.6-29.3-25.8-51.7-54-64.4c-15.6-7.1-31.8-12.8-47.7-19.2c-2.3-0.9-4.6-1.8-7.9-3.2
		c22-22.6,50.3-29.2,78.4-36.9c-8.7,14.7-13.7,30.1-12.7,47.5c1.1-1.9,2.1-3.9,3.4-5.6c3.6-4.8,6.9-9.8,11.1-14
		c4.7-4.8,7.2-4.2,10.4,1.5c5.2,9.1,9.5,18.8,15.3,27.5c8.7,13.3,18.1,26.3,27.7,39c4.9,6.4,6.7,6.2,12,0
		c15.5-18,28.5-37.7,39.1-58.9c1-1.9,1.8-3.9,2.8-5.8c4.1-8.2,6.9-8.8,13.1-1.9C716.2,305.8,720.2,312.1,725.1,318.9z"/>
</g>
</svg>
