<?xml version="1.0" encoding="utf-8"?>
<!-- Generator: Adobe Illustrator 22.0.1, SVG Export Plug-In . SVG Version: 6.00 Build 0)  -->
<svg version="1.1" id="Layer_1" xmlns="http://www.w3.org/2000/svg" xmlns:xlink="http://www.w3.org/1999/xlink" x="0px" y="0px"
	 viewBox="0 0 243.7 158.5" style="enable-background:new 0 0 243.7 158.5;" xml:space="preserve">
<style type="text/css">
	.st0{fill:#CFD1D3;}
	.st1{fill:#FFFFFF;}
	.st2{fill:#FDC90A;}
	.st3{fill:#221E20;}
</style>
<g>
	<rect class="st0" width="243.7" height="158.5"/>
	<rect x="3.9" y="3.4" class="st1" width="235.8" height="151.7"/>
	<g>
		<g>
			<path class="st2" d="M67.7,33.5h21.4V40H75.6v8h12.6v6.5H75.6v14.1h-7.9V33.5z"/>
			<path class="st2" d="M95.1,33.9c2.6-0.4,6.3-0.7,10.6-0.7c5.2,0,8.9,0.8,11.4,2.8c2.1,1.7,3.3,4.2,3.3,7.4c0,4.4-3.2,7.5-6.2,8.6
				v0.2c2.4,1,3.8,3.3,4.7,6.5c1.1,4,2.1,8.6,2.8,9.9h-8.1c-0.5-1-1.4-3.9-2.4-8.2c-1-4.4-2.5-5.6-5.8-5.6h-2.3v13.8h-7.9V33.9z
				 M102.9,49h3.1c4,0,6.3-2,6.3-5.1c0-3.2-2.2-4.8-5.8-4.8c-1.9,0-3,0.1-3.6,0.3V49z"/>
			<path class="st2" d="M146.8,53.7h-12.9V62h14.4v6.5H126V33.5h21.6V40h-13.7v7.3h12.9V53.7z"/>
			<path class="st2" d="M174.6,53.7h-12.9V62h14.4v6.5h-22.3V33.5h21.6V40h-13.7v7.3h12.9V53.7z"/>
		</g>
		<g>
			<path class="st3" d="M82.7,75.6c1.2-0.2,2.8-0.3,4.4-0.3c2.8,0,4.5,0.5,5.9,1.5c1.5,1.1,2.4,2.9,2.4,5.4c0,2.8-1,4.7-2.4,5.8
				c-1.5,1.3-3.8,1.9-6.7,1.9c-1.7,0-2.9-0.1-3.7-0.2V75.6z M85.9,87.3c0.3,0.1,0.7,0.1,1.1,0.1c3,0,4.9-1.6,4.9-5
				c0-3-1.8-4.6-4.6-4.6c-0.7,0-1.2,0.1-1.5,0.1V87.3z"/>
			<path class="st3" d="M99.9,85.5c0.1,1.3,1.4,2,2.9,2c1.1,0,2-0.1,2.9-0.4l0.4,2.2c-1.1,0.4-2.4,0.7-3.8,0.7c-3.5,0-5.6-2-5.6-5.3
				c0-2.6,1.6-5.6,5.3-5.6c3.4,0,4.7,2.6,4.7,5.2c0,0.6-0.1,1-0.1,1.3H99.9z M103.8,83.3c0-0.8-0.3-2.1-1.8-2.1
				c-1.4,0-1.9,1.3-2,2.1H103.8z"/>
			<path class="st3" d="M108.7,74.6h3.2v15.2h-3.2V74.6z"/>
			<path class="st3" d="M117.9,76.4c0,0.9-0.7,1.6-1.8,1.6c-1,0-1.7-0.7-1.7-1.6c0-0.9,0.7-1.6,1.7-1.6
				C117.3,74.8,117.9,75.5,117.9,76.4z M114.6,89.7V79.3h3.2v10.4H114.6z"/>
			<path class="st3" d="M122.8,79.3l1.4,4.8c0.3,0.9,0.4,1.7,0.6,2.5h0.1c0.2-0.9,0.3-1.6,0.6-2.5l1.3-4.8h3.4l-3.9,10.4h-3.2
				l-3.8-10.4H122.8z"/>
			<path class="st3" d="M133.9,85.5c0.1,1.3,1.4,2,2.9,2c1.1,0,2-0.1,2.9-0.4l0.4,2.2c-1.1,0.4-2.4,0.7-3.8,0.7
				c-3.5,0-5.6-2-5.6-5.3c0-2.6,1.6-5.6,5.3-5.6c3.4,0,4.7,2.6,4.7,5.2c0,0.6-0.1,1-0.1,1.3H133.9z M137.7,83.3
				c0-0.8-0.3-2.1-1.8-2.1c-1.4,0-1.9,1.3-2,2.1H137.7z"/>
			<path class="st3" d="M142.7,82.7c0-1.5,0-2.5-0.1-3.4h2.8l0.1,1.9h0.1c0.5-1.5,1.8-2.2,2.8-2.2c0.3,0,0.4,0,0.7,0.1v3.1
				c-0.3,0-0.5-0.1-0.9-0.1c-1.2,0-2,0.6-2.2,1.6c0,0.2-0.1,0.5-0.1,0.7v5.3h-3.2V82.7z"/>
			<path class="st3" d="M153.6,79.3l1.6,5.1c0.2,0.6,0.4,1.4,0.5,1.9h0.1c0.1-0.6,0.3-1.3,0.4-2l1.3-5.1h3.5l-2.4,6.9
				c-1.5,4.2-2.5,5.8-3.7,6.9c-1.1,1-2.3,1.3-3.1,1.4l-0.7-2.7c0.4-0.1,0.9-0.3,1.4-0.6c0.5-0.3,1-0.8,1.3-1.3
				c0.1-0.2,0.2-0.3,0.2-0.5s0-0.3-0.1-0.5l-3.8-9.6H153.6z"/>
		</g>
		<g>
			<path d="M22.7,107.3l-2-8.3h2l0.6,3.4c0.2,1,0.4,2.1,0.5,2.9h0c0.1-0.9,0.3-1.9,0.5-2.9l0.7-3.4h2l0.7,3.5c0.2,1,0.3,1.9,0.4,2.8
				h0c0.1-0.9,0.3-1.9,0.5-2.9l0.7-3.4h1.9l-2.2,8.3h-2l-0.7-3.6c-0.2-0.8-0.3-1.6-0.4-2.6h0c-0.1,0.9-0.3,1.7-0.5,2.6l-0.8,3.6
				H22.7z"/>
			<path d="M32.2,98.5H34v3.5h0c0.2-0.3,0.4-0.5,0.7-0.6c0.3-0.1,0.6-0.2,1-0.2c1.2,0,2.1,0.8,2.1,2.6v3.5H36V104
				c0-0.8-0.3-1.3-1-1.3c-0.5,0-0.8,0.3-0.9,0.7c0,0.1-0.1,0.3-0.1,0.4v3.6h-1.9V98.5z"/>
			<path d="M40.9,104.9c0.1,0.8,0.8,1.2,1.7,1.2c0.6,0,1.2-0.1,1.7-0.2l0.2,1.3c-0.6,0.2-1.4,0.4-2.2,0.4c-2.1,0-3.2-1.2-3.2-3.1
				c0-1.5,1-3.2,3.1-3.2c2,0,2.7,1.5,2.7,3c0,0.3,0,0.6-0.1,0.7H40.9z M43.1,103.6c0-0.5-0.2-1.2-1.1-1.2c-0.8,0-1.1,0.7-1.2,1.2
				H43.1z"/>
			<path d="M45.9,103.2c0-0.8,0-1.4,0-1.9h1.6l0.1,0.8h0c0.2-0.4,0.9-1,1.9-1c1.2,0,2.2,0.8,2.2,2.6v3.6h-1.9V104
				c0-0.8-0.3-1.3-1-1.3c-0.5,0-0.8,0.4-1,0.7c0,0.1-0.1,0.3-0.1,0.5v3.5h-1.9V103.2z"/>
			<path d="M57.1,101.3l0.9,3c0.1,0.4,0.2,0.8,0.3,1.1h0c0.1-0.3,0.2-0.8,0.3-1.1l0.7-3h2l-1.4,4c-0.9,2.4-1.4,3.4-2.1,4
				c-0.7,0.6-1.3,0.8-1.8,0.8l-0.4-1.6c0.2,0,0.5-0.1,0.8-0.3c0.3-0.1,0.6-0.4,0.8-0.8c0.1-0.1,0.1-0.2,0.1-0.3c0-0.1,0-0.2-0.1-0.3
				l-2.2-5.5H57.1z"/>
			<path d="M68,104.2c0,2.2-1.6,3.2-3.2,3.2c-1.8,0-3.1-1.2-3.1-3.1s1.3-3.2,3.2-3.2C66.7,101.1,68,102.4,68,104.2z M63.6,104.3
				c0,1,0.4,1.8,1.2,1.8c0.7,0,1.2-0.7,1.2-1.8c0-0.9-0.3-1.8-1.2-1.8C63.9,102.5,63.6,103.4,63.6,104.3z"/>
			<path d="M74.8,105.4c0,0.8,0,1.4,0,1.9h-1.6l-0.1-0.9h0c-0.2,0.4-0.8,1-1.9,1c-1.2,0-2.1-0.8-2.1-2.6v-3.6H71v3.3
				c0,0.9,0.3,1.4,0.9,1.4c0.5,0,0.8-0.4,0.9-0.7c0-0.1,0.1-0.3,0.1-0.4v-3.6h1.9V105.4z"/>
			<path d="M76.3,103.3c0-0.9,0-1.5,0-2h1.6l0.1,1.1h0c0.3-0.9,1.1-1.3,1.6-1.3c0.2,0,0.3,0,0.4,0v1.8c-0.1,0-0.3,0-0.5,0
				c-0.7,0-1.2,0.4-1.3,1c0,0.1,0,0.3,0,0.4v3.1h-1.9V103.3z"/>
			<path d="M83.6,99.1c0.6-0.1,1.4-0.2,2.5-0.2c1.2,0,2,0.2,2.5,0.7c0.5,0.4,0.9,1.1,0.9,1.9s-0.3,1.5-0.8,2
				c-0.6,0.6-1.6,0.9-2.7,0.9c-0.2,0-0.5,0-0.6,0v3h-1.9V99.1z M85.5,102.9c0.2,0,0.4,0,0.6,0c1,0,1.6-0.5,1.6-1.4
				c0-0.8-0.5-1.2-1.5-1.2c-0.4,0-0.6,0-0.8,0.1V102.9z"/>
			<path d="M96.3,105.4c0,0.8,0,1.4,0,1.9h-1.6l-0.1-0.9h0c-0.2,0.4-0.8,1-1.9,1c-1.2,0-2.1-0.8-2.1-2.6v-3.6h1.9v3.3
				c0,0.9,0.3,1.4,0.9,1.4c0.5,0,0.8-0.4,0.9-0.7c0-0.1,0.1-0.3,0.1-0.4v-3.6h1.9V105.4z"/>
			<path d="M97.8,103.3c0-0.9,0-1.5,0-2h1.6l0.1,1.1h0c0.3-0.9,1.1-1.3,1.6-1.3c0.2,0,0.3,0,0.4,0v1.8c-0.1,0-0.3,0-0.5,0
				c-0.7,0-1.2,0.4-1.3,1c0,0.1,0,0.3,0,0.4v3.1h-1.9V103.3z"/>
			<path d="M106.9,107.2c-0.3,0.1-1,0.3-1.7,0.3c-2,0-3.2-1.2-3.2-3.1c0-1.8,1.2-3.2,3.5-3.2c0.5,0,1,0.1,1.4,0.2l-0.3,1.4
				c-0.2-0.1-0.6-0.2-1.1-0.2c-1,0-1.6,0.7-1.6,1.7c0,1.1,0.7,1.7,1.7,1.7c0.4,0,0.8-0.1,1.1-0.2L106.9,107.2z"/>
			<path d="M108,98.5h1.9v3.5h0c0.2-0.3,0.4-0.5,0.7-0.6c0.3-0.1,0.6-0.2,1-0.2c1.2,0,2.1,0.8,2.1,2.6v3.5h-1.9V104
				c0-0.8-0.3-1.3-1-1.3c-0.5,0-0.8,0.3-0.9,0.7c0,0.1-0.1,0.3-0.1,0.4v3.6H108V98.5z"/>
			<path d="M118.7,107.3l-0.1-0.6h0c-0.4,0.5-1,0.7-1.7,0.7c-1.2,0-2-0.9-2-1.9c0-1.6,1.4-2.3,3.6-2.3v-0.1c0-0.3-0.2-0.8-1.1-0.8
				c-0.6,0-1.3,0.2-1.7,0.5l-0.3-1.2c0.4-0.2,1.3-0.5,2.4-0.5c2,0,2.7,1.2,2.7,2.6v2.1c0,0.6,0,1.1,0.1,1.5H118.7z M118.4,104.5
				c-1,0-1.8,0.2-1.8,1c0,0.5,0.3,0.7,0.7,0.7c0.5,0,0.9-0.3,1-0.7c0-0.1,0-0.2,0-0.3V104.5z"/>
			<path d="M121.7,105.7c0.3,0.2,1.1,0.5,1.6,0.5c0.6,0,0.8-0.2,0.8-0.5s-0.2-0.5-0.9-0.7c-1.3-0.4-1.7-1.1-1.7-1.8c0-1.1,1-2,2.5-2
				c0.7,0,1.3,0.2,1.7,0.3l-0.3,1.3c-0.3-0.1-0.8-0.3-1.3-0.3c-0.5,0-0.7,0.2-0.7,0.5c0,0.3,0.2,0.4,1,0.7c1.2,0.4,1.6,1,1.6,1.9
				c0,1.1-0.9,2-2.6,2c-0.8,0-1.5-0.2-2-0.4L121.7,105.7z"/>
			<path d="M128.6,104.9c0.1,0.8,0.8,1.2,1.7,1.2c0.6,0,1.2-0.1,1.7-0.2l0.2,1.3c-0.6,0.2-1.4,0.4-2.2,0.4c-2.1,0-3.2-1.2-3.2-3.1
				c0-1.5,1-3.2,3.1-3.2c2,0,2.7,1.5,2.7,3c0,0.3,0,0.6-0.1,0.7H128.6z M130.8,103.6c0-0.5-0.2-1.2-1.1-1.2c-0.8,0-1.1,0.7-1.2,1.2
				H130.8z"/>
			<path d="M137.3,100.6h-2.2V99h6.4v1.6h-2.3v6.8h-1.9V100.6z"/>
			<path d="M147.4,104.2c0,2.2-1.6,3.2-3.2,3.2c-1.8,0-3.1-1.2-3.1-3.1s1.3-3.2,3.2-3.2C146.2,101.1,147.4,102.4,147.4,104.2z
				 M143,104.3c0,1,0.4,1.8,1.2,1.8c0.7,0,1.2-0.7,1.2-1.8c0-0.9-0.3-1.8-1.2-1.8C143.4,102.5,143,103.4,143,104.3z"/>
			<path d="M150.7,99.5v1.7h1.3v1.4h-1.3v2.2c0,0.7,0.2,1.1,0.7,1.1c0.2,0,0.4,0,0.6,0l0,1.4c-0.2,0.1-0.7,0.2-1.2,0.2
				c-0.6,0-1.1-0.2-1.4-0.5c-0.3-0.4-0.5-0.9-0.5-1.8v-2.5H148v-1.4h0.8V100L150.7,99.5z"/>
			<path d="M156.6,107.3l-0.1-0.6h0c-0.4,0.5-1,0.7-1.7,0.7c-1.2,0-2-0.9-2-1.9c0-1.6,1.4-2.3,3.6-2.3v-0.1c0-0.3-0.2-0.8-1.1-0.8
				c-0.6,0-1.3,0.2-1.7,0.5l-0.3-1.2c0.4-0.2,1.3-0.5,2.4-0.5c2,0,2.7,1.2,2.7,2.6v2.1c0,0.6,0,1.1,0.1,1.5H156.6z M156.3,104.5
				c-1,0-1.8,0.2-1.8,1c0,0.5,0.3,0.7,0.7,0.7c0.5,0,0.9-0.3,1-0.7c0-0.1,0-0.2,0-0.3V104.5z"/>
			<path d="M159.7,98.5h1.9v8.8h-1.9V98.5z"/>
			<path d="M170.8,98.8c-0.7,1.1-1.3,2.8-1.3,5c0,2.2,0.6,3.8,1.3,5h-1.3c-0.7-1-1.4-2.6-1.4-5c0-2.4,0.7-4,1.4-5H170.8z"/>
			<path d="M173.4,104.9c0.1,0.8,0.8,1.2,1.7,1.2c0.6,0,1.2-0.1,1.7-0.2l0.2,1.3c-0.6,0.2-1.4,0.4-2.2,0.4c-2.1,0-3.2-1.2-3.2-3.1
				c0-1.5,1-3.2,3.1-3.2c2,0,2.7,1.5,2.7,3c0,0.3,0,0.6-0.1,0.7H173.4z M175.6,103.6c0-0.5-0.2-1.2-1.1-1.2c-0.8,0-1.1,0.7-1.2,1.2
				H175.6z"/>
			<path d="M179.8,101.3l0.6,1c0.2,0.3,0.3,0.6,0.5,0.9h0c0.2-0.3,0.3-0.6,0.5-0.9l0.5-1h2l-2,2.9l2,3.2h-2.1l-0.6-1.1
				c-0.2-0.3-0.3-0.6-0.5-0.9h0c-0.1,0.3-0.3,0.6-0.5,0.9l-0.6,1.1h-2.1l2.1-3.1l-2-3H179.8z"/>
			<path d="M189,107.2c-0.3,0.1-1,0.3-1.7,0.3c-2,0-3.2-1.2-3.2-3.1c0-1.8,1.2-3.2,3.5-3.2c0.5,0,1,0.1,1.4,0.2l-0.3,1.4
				c-0.2-0.1-0.6-0.2-1.1-0.2c-1,0-1.6,0.7-1.6,1.7c0,1.1,0.7,1.7,1.7,1.7c0.4,0,0.8-0.1,1.1-0.2L189,107.2z"/>
			<path d="M190,98.5h1.9v8.8H190V98.5z"/>
			<path d="M193.2,106.3c0-0.7,0.5-1.2,1.1-1.2s1.1,0.5,1.1,1.2c0,0.7-0.4,1.1-1.1,1.1C193.7,107.5,193.2,107,193.2,106.3z"/>
			<path d="M200.6,107.3l-2.7-8.3h2.1l1,3.5c0.3,1,0.5,1.9,0.7,3h0c0.2-1,0.5-2,0.8-2.9l1.1-3.6h2l-2.8,8.3H200.6z"/>
			<path d="M207.8,105.2l-0.6,2.1h-2l2.5-8.3h2.5l2.6,8.3h-2l-0.6-2.1H207.8z M209.9,103.8l-0.5-1.8c-0.1-0.5-0.3-1.1-0.4-1.6h0
				c-0.1,0.5-0.2,1.1-0.4,1.6l-0.5,1.8H209.9z"/>
			<path d="M214.5,100.6h-2.2V99h6.4v1.6h-2.3v6.8h-1.9V100.6z"/>
			<path d="M219.7,108.8c0.7-1.1,1.2-2.8,1.2-5c0-2.2-0.6-3.8-1.2-5h1.3c0.7,1,1.4,2.6,1.4,5c0,2.4-0.8,4-1.4,5H219.7z"/>
			<path d="M79.6,119.7c0.1,0.8,0.8,1.2,1.7,1.2c0.6,0,1.2-0.1,1.7-0.2l0.2,1.3c-0.6,0.2-1.4,0.4-2.2,0.4c-2.1,0-3.2-1.2-3.2-3.1
				c0-1.5,1-3.2,3.1-3.2c2,0,2.7,1.5,2.7,3c0,0.3,0,0.6-0.1,0.7H79.6z M81.8,118.4c0-0.5-0.2-1.2-1.1-1.2c-0.8,0-1.1,0.7-1.2,1.2
				H81.8z"/>
			<path d="M86,116.1l0.6,1c0.2,0.3,0.3,0.6,0.5,0.9h0c0.2-0.3,0.3-0.6,0.5-0.9l0.5-1h2l-2,2.9l2,3.2H88l-0.6-1.1
				c-0.2-0.3-0.3-0.6-0.5-0.9h0c-0.1,0.3-0.3,0.6-0.5,0.9l-0.6,1.1h-2.1l2.1-3.1l-2-3H86z"/>
			<path d="M95.2,122c-0.3,0.1-1,0.3-1.7,0.3c-2,0-3.2-1.2-3.2-3.1c0-1.8,1.2-3.2,3.5-3.2c0.5,0,1,0.1,1.4,0.2l-0.3,1.4
				c-0.2-0.1-0.6-0.2-1.1-0.2c-1,0-1.6,0.7-1.6,1.7c0,1.1,0.7,1.7,1.7,1.7c0.4,0,0.8-0.1,1.1-0.2L95.2,122z"/>
			<path d="M97.6,119.7c0.1,0.8,0.8,1.2,1.7,1.2c0.6,0,1.2-0.1,1.7-0.2l0.2,1.3c-0.6,0.2-1.4,0.4-2.2,0.4c-2.1,0-3.2-1.2-3.2-3.1
				c0-1.5,1-3.2,3.1-3.2c2,0,2.7,1.5,2.7,3c0,0.3,0,0.6-0.1,0.7H97.6z M99.8,118.4c0-0.5-0.2-1.2-1.1-1.2c-0.8,0-1.1,0.7-1.2,1.2
				H99.8z"/>
			<path d="M104.1,119.7c0.1,0.8,0.8,1.2,1.7,1.2c0.6,0,1.2-0.1,1.7-0.2l0.2,1.3c-0.6,0.2-1.4,0.4-2.2,0.4c-2.1,0-3.2-1.2-3.2-3.1
				c0-1.5,1-3.2,3.1-3.2c2,0,2.7,1.5,2.7,3c0,0.3,0,0.6-0.1,0.7H104.1z M106.3,118.4c0-0.5-0.2-1.2-1.1-1.2c-0.8,0-1.1,0.7-1.2,1.2
				H106.3z"/>
			<path d="M115,113.4v7c0,0.7,0,1.4,0,1.8h-1.7l-0.1-0.9h0c-0.4,0.7-1.1,1-1.9,1c-1.4,0-2.6-1.2-2.6-3.1c0-2,1.3-3.2,2.7-3.2
				c0.7,0,1.3,0.3,1.6,0.7h0v-3.3H115z M113.2,118.7c0-0.1,0-0.2,0-0.3c-0.1-0.5-0.5-0.9-1.1-0.9c-0.9,0-1.3,0.8-1.3,1.7
				c0,1,0.5,1.7,1.3,1.7c0.5,0,1-0.4,1.1-0.9c0-0.1,0-0.3,0-0.4V118.7z"/>
			<path d="M116.5,120.5c0.3,0.2,1.1,0.5,1.6,0.5c0.6,0,0.8-0.2,0.8-0.5s-0.2-0.5-0.9-0.7c-1.3-0.4-1.7-1.1-1.7-1.8c0-1.1,1-2,2.5-2
				c0.7,0,1.3,0.2,1.7,0.3l-0.3,1.3c-0.3-0.1-0.8-0.3-1.3-0.3c-0.5,0-0.7,0.2-0.7,0.5c0,0.3,0.2,0.4,1,0.7c1.2,0.4,1.6,1,1.6,1.9
				c0,1.1-0.9,2-2.6,2c-0.8,0-1.5-0.2-2-0.4L116.5,120.5z"/>
			<path d="M124.5,113.9c0.6-0.1,1.5-0.2,2.5-0.2c1.2,0,2.1,0.2,2.7,0.7c0.5,0.4,0.8,1,0.8,1.7c0,1.1-0.8,1.8-1.5,2.1v0
				c0.6,0.2,0.9,0.8,1.1,1.6c0.3,0.9,0.5,2,0.7,2.4h-1.9c-0.1-0.2-0.3-0.9-0.6-1.9c-0.2-1-0.6-1.3-1.3-1.3h-0.6v3.3h-1.9V113.9z
				 M126.3,117.5h0.7c0.9,0,1.5-0.5,1.5-1.2c0-0.8-0.5-1.2-1.4-1.2c-0.5,0-0.7,0-0.9,0.1V117.5z"/>
			<path d="M131.7,120.5c0.3,0.2,1.1,0.5,1.6,0.5c0.6,0,0.8-0.2,0.8-0.5s-0.2-0.5-0.9-0.7c-1.3-0.4-1.7-1.1-1.7-1.8c0-1.1,1-2,2.5-2
				c0.7,0,1.3,0.2,1.7,0.3l-0.3,1.3c-0.3-0.1-0.8-0.3-1.3-0.3c-0.5,0-0.7,0.2-0.7,0.5c0,0.3,0.2,0.4,1,0.7c1.2,0.4,1.6,1,1.6,1.9
				c0,1.1-0.9,2-2.6,2c-0.8,0-1.5-0.2-2-0.4L131.7,120.5z"/>
			<path d="M144.7,115.7h-3.1l-0.2,1.2c0.2,0,0.3,0,0.5,0c0.8,0,1.5,0.2,2.1,0.6c0.6,0.4,1,1.1,1,2c0,1.5-1.3,2.8-3.5,2.8
				c-1,0-1.8-0.2-2.2-0.5l0.3-1.4c0.4,0.2,1.1,0.4,1.8,0.4c0.8,0,1.6-0.4,1.6-1.2c0-0.8-0.7-1.3-2.3-1.3c-0.4,0-0.8,0-1.1,0.1
				l0.5-4.2h4.4V115.7z"/>
			<path d="M152.2,118.1c0,2.5-1,4.2-3.1,4.2c-2.1,0-3-1.9-3-4.1c0-2.3,1-4.2,3.1-4.2C151.3,114,152.2,115.9,152.2,118.1z
				 M148,118.1c0,1.8,0.4,2.7,1.2,2.7c0.7,0,1.1-0.9,1.1-2.7c0-1.8-0.4-2.7-1.1-2.7C148.5,115.4,148,116.3,148,118.1z"/>
			<path d="M159,118.1c0,2.5-1,4.2-3.1,4.2c-2.1,0-3-1.9-3-4.1c0-2.3,1-4.2,3.1-4.2C158.2,114,159,115.9,159,118.1z M154.9,118.1
				c0,1.8,0.4,2.7,1.2,2.7c0.7,0,1.1-0.9,1.1-2.7c0-1.8-0.4-2.7-1.1-2.7C155.3,115.4,154.9,116.3,154.9,118.1z"/>
			<path d="M165.9,118.1c0,2.5-1,4.2-3.1,4.2c-2.1,0-3-1.9-3-4.1c0-2.3,1-4.2,3.1-4.2C165.1,114,165.9,115.9,165.9,118.1z
				 M161.7,118.1c0,1.8,0.4,2.7,1.2,2.7c0.7,0,1.1-0.9,1.1-2.7c0-1.8-0.4-2.7-1.1-2.7C162.2,115.4,161.7,116.3,161.7,118.1z"/>
		</g>
	</g>
</g>
</svg>
