<?xml version="1.0" encoding="utf-8"?>
<!-- Generator: Adobe Illustrator 22.0.1, SVG Export Plug-In . SVG Version: 6.00 Build 0)  -->
<svg version="1.1" xmlns="http://www.w3.org/2000/svg" xmlns:xlink="http://www.w3.org/1999/xlink" x="0px" y="0px"
	 viewBox="0 0 500 372.6" style="enable-background:new 0 0 500 372.6;" xml:space="preserve">
<style type="text/css">
	.st0{fill:#EBEBEB;}
	.st1{fill:#F0F0F0;}
	.st2{fill:#FAFAFA;}
	.st3{fill:#FFFFFF;}
	.st4{fill:#E0E0E0;}
	.st5{opacity:0.6;}
	.st6{fill:#F5F5F5;}
	.st7{fill:#E6E6E6;}
	.st8{opacity:0.5;fill:#FAFAFA;}
	.st9{display:none;}
	.st10{display:inline;}
	.st11{fill:#407BFF;}
	.st12{opacity:0.9;fill:#FFFFFF;}
	.st13{fill:#263238;}
	.st14{fill:#FF8B7B;}
	.st15{opacity:0.2;}
	.st16{opacity:0.6;fill:#FFFFFF;}
	.st17{fill:#FF5652;}
	.st18{fill:#FFC3BD;}
	.st19{opacity:0.4;fill:#FFFFFF;}
	.st20{opacity:0.3;}
	.st21{opacity:0.4;}
	.st22{fill:#ED847E;}
</style>
<g id="Background_Complete">
	<g>
		<rect y="327.4" class="st0" width="500" height="0.3"/>
		<rect x="400.7" y="338.1" class="st0" width="33.1" height="0.3"/>
		<rect x="304.4" y="338" class="st0" width="8.7" height="0.3"/>
		<rect x="430.7" y="343.5" class="st0" width="19.2" height="0.3"/>
		<rect x="71.4" y="346.9" class="st0" width="43.2" height="0.3"/>
		<rect x="104.6" y="335.9" class="st0" width="6.3" height="0.3"/>
		<rect x="187.5" y="337" class="st0" width="60.9" height="0.3"/>
		<path class="st0" d="M237,282.8H43.9c-3.1,0-5.7-2.6-5.7-5.7V5.7c0-3.1,2.6-5.7,5.7-5.7H237c3.1,0,5.7,2.6,5.7,5.7v271.4
			C242.7,280.3,240.2,282.8,237,282.8z M43.9,0.3c-3,0-5.5,2.4-5.5,5.5v271.4c0,3,2.4,5.5,5.5,5.5H237c3,0,5.5-2.4,5.5-5.5V5.7
			c0-3-2.4-5.5-5.5-5.5H43.9z"/>
		<path class="st0" d="M453.3,282.8H260.2c-3.1,0-5.7-2.6-5.7-5.7V5.7c0-3.1,2.6-5.7,5.7-5.7h193.1c3.1,0,5.7,2.6,5.7,5.7v271.4
			C459,280.3,456.5,282.8,453.3,282.8z M260.2,0.3c-3,0-5.5,2.4-5.5,5.5v271.4c0,3,2.4,5.5,5.5,5.5h193.1c3,0,5.5-2.4,5.5-5.5V5.7
			c0-3-2.4-5.5-5.5-5.5H260.2z"/>
	</g>
	<g>
		<g>
			<g>
				<rect x="71.1" y="41.4" class="st1" width="357.8" height="148.9"/>
				
					<rect x="182.6" y="-56.1" transform="matrix(-1.836970e-16 1 -1 -1.836970e-16 365.8252 -134.1749)" class="st2" width="134.9" height="343.8"/>
				<polygon class="st3" points="123.4,183.3 158.6,48.4 184.6,48.4 149.4,183.3 				"/>
				<polygon class="st3" points="155.4,183.3 190.6,48.4 202.3,48.4 167,183.3 				"/>
				<polygon class="st3" points="212.3,183.3 247.5,48.4 273.5,48.4 238.3,183.3 				"/>
				<polygon class="st3" points="277.8,183.3 313.1,48.4 324.7,48.4 289.5,183.3 				"/>
				
					<rect x="101.9" y="114.9" transform="matrix(-1.836970e-16 1 -1 -1.836970e-16 285.1447 -53.4944)" class="st4" width="134.9" height="1.8"/>
				
					<rect x="11.6" y="114.9" transform="matrix(-1.836970e-16 1 -1 -1.836970e-16 194.8253 36.8251)" class="st4" width="134.9" height="1.8"/>
				
					<rect x="97.5" y="112.3" transform="matrix(-1.836970e-16 1 -1 -1.836970e-16 280.7559 -49.1055)" class="st1" width="134.9" height="7"/>
				<g>
					
						<rect x="188.7" y="114.9" transform="matrix(-1.836970e-16 1 -1 -1.836970e-16 371.9366 -140.2863)" class="st4" width="134.9" height="1.8"/>
					
						<rect x="184.3" y="112.3" transform="matrix(-1.836970e-16 1 -1 -1.836970e-16 367.5477 -135.8974)" class="st1" width="134.9" height="7"/>
				</g>
				<g>
					
						<rect x="275.5" y="114.9" transform="matrix(-1.836970e-16 1 -1 -1.836970e-16 458.7698 -227.1195)" class="st4" width="134.9" height="1.8"/>
					
						<rect x="271.1" y="112.3" transform="matrix(-1.836970e-16 1 -1 -1.836970e-16 454.381 -222.7307)" class="st1" width="134.9" height="7"/>
				</g>
				
					<rect x="355.3" y="114.9" transform="matrix(-1.836970e-16 1 -1 -1.836970e-16 545.6027 -313.9525)" class="st4" width="148.9" height="1.8"/>
			</g>
			<g>
				<path class="st4" d="M434.7,31.2H65.3c-0.9,0-1.6-0.7-1.6-1.6l0,0c0-0.9,0.7-1.6,1.6-1.6h369.3c0.9,0,1.6,0.7,1.6,1.6l0,0
					C436.2,30.5,435.5,31.2,434.7,31.2z"/>
				<g class="st5">
					<rect x="66.8" y="25" class="st6" width="75.6" height="271.7"/>
					<polygon class="st7" points="107.7,298.9 101.4,298.9 103.2,27.3 106,27.3 					"/>
					<polygon class="st7" points="86.8,298.9 83.7,298.9 84.6,27.3 85.9,27.3 					"/>
					<polygon class="st7" points="128.8,298.9 125.7,298.9 126.6,27.3 127.9,27.3 					"/>
				</g>
				<g class="st5">
					<rect x="356.8" y="25" class="st6" width="75.6" height="271.7"/>
					<polygon class="st7" points="386.4,298.9 380,298.9 381.8,27.3 384.7,27.3 					"/>
					<polygon class="st7" points="372.4,298.9 369.3,298.9 370.2,27.3 371.6,27.3 					"/>
					<polygon class="st7" points="404.7,298.9 401.7,298.9 402.5,27.3 403.9,27.3 					"/>
					<polygon class="st7" points="420.3,298.9 417.2,298.9 418.1,27.3 419.5,27.3 					"/>
				</g>
			</g>
		</g>
		<g>
			<g>
				<g>
					
						<rect x="325.2" y="244.4" transform="matrix(-1 -1.224647e-16 1.224647e-16 -1 664.6337 570.1107)" class="st7" width="14.2" height="81.4"/>
					
						<rect x="160.6" y="244.4" transform="matrix(-1 -1.224647e-16 1.224647e-16 -1 491.2565 570.1107)" class="st1" width="170.1" height="81.4"/>
					<polygon class="st4" points="326.9,325.7 321.7,325.7 167.9,325.7 167.9,327.4 321.7,327.4 326.9,327.4 332.1,327.4 
						332.1,325.7 					"/>
					
						<rect x="165.4" y="249.5" transform="matrix(-1 -1.224647e-16 1.224647e-16 -1 491.2566 531.7502)" class="st8" width="160.4" height="32.8"/>
					
						<rect x="165.4" y="287.6" transform="matrix(-1 -1.224647e-16 1.224647e-16 -1 491.2566 608.0368)" class="st8" width="160.4" height="32.8"/>
					<path class="st4" d="M189.7,265.9c0,2-1.6,3.6-3.6,3.6s-3.6-1.6-3.6-3.6c0-2,1.6-3.6,3.6-3.6S189.7,263.9,189.7,265.9z"/>
					<path class="st4" d="M308.7,265.9c0,2-1.6,3.6-3.6,3.6c-2,0-3.6-1.6-3.6-3.6c0-2,1.6-3.6,3.6-3.6
						C307.1,262.3,308.7,263.9,308.7,265.9z"/>
					<circle class="st4" cx="186.1" cy="304" r="3.6"/>
					<path class="st4" d="M308.7,304c0,2-1.6,3.6-3.6,3.6c-2,0-3.6-1.6-3.6-3.6s1.6-3.6,3.6-3.6C307.1,300.4,308.7,302,308.7,304z"
						/>
					<path class="st4" d="M249.2,265.9c0,2-1.6,3.6-3.6,3.6s-3.6-1.6-3.6-3.6c0-2,1.6-3.6,3.6-3.6S249.2,263.9,249.2,265.9z"/>
					<circle class="st4" cx="245.6" cy="304" r="3.6"/>
				</g>
			</g>
			<path class="st1" d="M320.2,230.5c0,7.6-6.2,13.8-13.8,13.8c-7.6,0-13.8-6.2-13.8-13.8H320.2z"/>
			<path class="st1" d="M210.9,228.1c0,9-7.3,16.3-16.3,16.3c-9,0-16.3-7.3-16.3-16.3H210.9z"/>
			<path class="st1" d="M280.9,234.8c0,5.3-4.3,9.6-9.6,9.6c-5.3,0-9.6-4.3-9.6-9.6H280.9z"/>
		</g>
	</g>
</g>
<g id="Background_Simple" class="st9">
	<g class="st10">
		<path class="st11" d="M232.3,56.7c-38.6-2.3-78.9-25-116.8-3.1C87.2,70.1,83,102.4,91.3,132.7c21.8,79.5,144.1,93,213,73
			c71.4-20.7,151.9-91.4,105.7-163.3c-19-29.7-52.2-34.9-88.3-25.1C291,25.7,262.6,58.5,232.3,56.7z"/>
		<path class="st12" d="M232.3,56.7c-38.6-2.3-78.9-25-116.8-3.1C87.2,70.1,83,102.4,91.3,132.7c21.8,79.5,144.1,93,213,73
			c71.4-20.7,151.9-91.4,105.7-163.3c-19-29.7-52.2-34.9-88.3-25.1C291,25.7,262.6,58.5,232.3,56.7z"/>
	</g>
</g>
<g id="Shadow_1_">
	<ellipse id="_x3C_Path_x3E__126_" class="st6" cx="250" cy="361.3" rx="193.9" ry="11.3"/>
</g>
<g id="Character_2">
	<g>
		<g>
			<path class="st13" d="M348.1,60.4c-2.1-2.1-6.2-10.2-2.3-14c3.9-3.7,7.4-0.3,7.7,1.5C353.8,49.8,353.1,65.4,348.1,60.4z"/>
			<polygon class="st14" points="347.2,350.7 338.3,350.8 335.9,330.1 344.8,330.1 			"/>
			<path class="st13" d="M338.3,349.7l9.7-0.1c0.4,0,0.7,0.2,0.8,0.6l2.4,7.9c0.2,0.8-0.3,1.6-1.2,1.6c-3.5,0-8.6-0.2-13-0.2
				c-5.2,0-7.5,0.4-13.5,0.4c-3.7,0-5-3.7-3.4-4c6.9-1.6,10.4-1.8,16.2-5.6C336.8,350,337.5,349.8,338.3,349.7z"/>
			<g>
				<polygon class="st15" points="335.9,330.1 337.1,340.8 346.1,340.7 344.8,330.1 				"/>
			</g>
			<path class="st11" d="M334.6,351.3c1,0,2.1-0.2,2.9-0.3c0.1,0,0.2-0.1,0.2-0.2c0-0.1,0-0.2-0.1-0.2c-0.4-0.2-4.2-2-5.2-1.4
				c-0.2,0.1-0.3,0.3-0.3,0.6c0,0.4,0.2,0.8,0.5,1C333,351.2,333.8,351.3,334.6,351.3z M336.8,350.7c-1.9,0.3-3.4,0.3-4-0.2
				c-0.2-0.2-0.3-0.4-0.3-0.7c0-0.1,0.1-0.2,0.1-0.2C333.1,349.2,335.2,350,336.8,350.7z"/>
			<path class="st11" d="M337.4,351c0,0,0.1,0,0.1,0c0.1,0,0.1-0.1,0.1-0.2c0-0.2-0.7-4-2.8-3.8c-0.6,0.1-0.7,0.3-0.8,0.6
				C333.9,348.6,336.2,350.5,337.4,351C337.4,351,337.4,351,337.4,351z M335,347.4c1.3,0,1.9,2.1,2.1,3c-1.2-0.7-2.7-2.2-2.7-2.8
				c0,0,0-0.2,0.4-0.2C334.9,347.4,335,347.4,335,347.4z"/>
			<path class="st14" d="M340.9,105.5l-0.9,1l-0.9,0.9c-0.6,0.6-1.2,1.1-1.7,1.6c-1.2,1-2.4,2.1-3.6,3c-2.5,1.9-5.1,3.8-7.8,5.4
				c-1.4,0.8-2.8,1.6-4.2,2.3c-1.4,0.7-2.9,1.4-4.5,2c-3.1,1.2-6.3,2.1-9.7,2.6l-0.7,0.1c-0.5,0.1-0.9,0.1-1.4,0.1
				c-1,0-2.2-0.2-3.3-0.6c-1.1-0.4-2-1.1-2.8-1.8c-0.8-0.7-1.2-1.4-1.7-2.1c-0.8-1.3-1.2-2.5-1.4-3.5c-0.3-1-0.4-2-0.5-2.9
				c-0.2-1.8-0.2-3.5-0.2-5.1c0.1-1.6,0.2-3.2,0.4-4.7c0.4-3.1,0.9-6,1.6-9c0.7-2.9,1.4-5.8,2.4-8.7l6.6,1.3
				c-0.2,5.6-0.5,11.4-0.3,16.8c0.1,2.7,0.3,5.4,0.8,7.5c0.1,0.5,0.3,1,0.4,1.3c0.1,0.3,0.3,0.6,0.3,0.5c0-0.1-0.1-0.2-0.3-0.4
				c-0.2-0.2-0.5-0.4-0.9-0.6c-0.4-0.2-0.9-0.2-1.1-0.3c-0.2,0-0.3,0-0.4,0c-0.1,0,0.1,0,0.1,0l0.2-0.1c2.3-0.6,4.6-1.4,6.9-2.5
				c2.3-1.1,4.5-2.4,6.7-3.8c2.2-1.4,4.3-3,6.4-4.7c1-0.8,2.1-1.7,3-2.6l1.5-1.3l0.7-0.7l0.6-0.6L340.9,105.5z"/>
			<path class="st13" d="M346.2,101.9c-0.3-9.4-8.1-12.7-17.8-6.3c-9.2,6.1-12.3,8.9-12.3,8.9l6.3,20.1c0,0,12-3.8,18.9-11.3
				C346,108.3,346.3,105.2,346.2,101.9z"/>
			<path class="st15" d="M334.4,106c0,0-5.8,8.3-7.8,17.1c2.3-1,5.3-2.4,8.2-4.3L334.4,106z"/>
			<path class="st14" d="M306.3,90.4l3.4-7.6l-9.5-2.8c0,0-1.6,3.6-0.7,9.9L306.3,90.4z"/>
			<polygon class="st14" points="310.6,73.9 302.4,74.9 300.1,80 309.6,82.8 			"/>
			<g>
				<g>
					<path class="st11" d="M334.5,170.3c0,0-6.1,51.5-6.8,79c-0.7,28.6,4.9,86.3,4.9,86.3l16.1-0.3c0,0,1.9-61.8,4.3-90.1
						c2.5-30.9,8.9-75.4,8.9-75.4L334.5,170.3z"/>
					<path class="st16" d="M334.5,170.3c0,0-6.1,51.5-6.8,79c-0.7,28.6,4.9,86.3,4.9,86.3l16.1-0.3c0,0,1.9-61.8,4.3-90.1
						c2.5-30.9,8.9-75.4,8.9-75.4L334.5,170.3z"/>
				</g>
				<path class="st15" d="M353.7,184.9c-7.2,15.9-5.3,51.3-1.2,66.5c0.2-2.2,0.3-4.3,0.5-6.2c1.7-20.3,5-46.6,7.1-62.2
					C358.1,180.1,355.9,179.9,353.7,184.9z"/>
				<g>
					<polygon class="st11" points="350.7,336 331.7,336.4 330.3,330.1 350.4,330 					"/>
				</g>
			</g>
			<polygon class="st14" points="387,350.7 378.1,350.8 375.7,330.1 384.6,330.1 			"/>
			<path class="st13" d="M378.1,349.7l9.7-0.1c0.4,0,0.7,0.2,0.8,0.6l2.4,7.9c0.2,0.8-0.3,1.6-1.2,1.6c-3.5,0-8.6-0.2-13-0.2
				c-5.2,0-7.5,0.4-13.5,0.4c-3.7,0-5-3.7-3.4-4c6.9-1.6,10.4-1.8,16.2-5.6C376.6,350,377.3,349.8,378.1,349.7z"/>
			<g>
				<polygon class="st15" points="375.7,330.1 376.9,340.8 385.9,340.7 384.6,330.1 				"/>
			</g>
			<path class="st11" d="M374.4,351.3c1,0,2.1-0.2,2.9-0.3c0.1,0,0.2-0.1,0.2-0.2c0-0.1,0-0.2-0.1-0.2c-0.4-0.2-4.2-2-5.2-1.4
				c-0.2,0.1-0.3,0.3-0.3,0.6c0,0.4,0.2,0.8,0.5,1C372.8,351.2,373.6,351.3,374.4,351.3z M376.6,350.7c-1.9,0.3-3.4,0.3-4-0.2
				c-0.2-0.2-0.3-0.4-0.3-0.7c0-0.1,0.1-0.2,0.1-0.2C372.9,349.2,375,350,376.6,350.7z"/>
			<path class="st11" d="M377.2,351c0,0,0.1,0,0.1,0c0.1,0,0.1-0.1,0.1-0.2c0-0.2-0.7-4-2.8-3.8c-0.6,0.1-0.7,0.3-0.8,0.6
				C373.7,348.6,376,350.5,377.2,351C377.2,351,377.2,351,377.2,351z M374.8,347.4c1.3,0,1.9,2.1,2.1,3c-1.2-0.7-2.7-2.2-2.7-2.8
				c0,0,0-0.2,0.4-0.2C374.7,347.4,374.8,347.4,374.8,347.4z"/>
			<g>
				<g>
					<path class="st11" d="M350.2,170c0,0,4.5,55.4,7.7,82.7c3.4,28.4,14.5,82.9,14.5,82.9l16.1-0.3c0,0-4.4-61.9-6.1-90.3
						c-1.9-30.9-2.3-75.7-2.3-75.7L350.2,170z"/>
					<path class="st16" d="M350.2,170c0,0,4.5,55.4,7.7,82.7c3.4,28.4,14.5,82.9,14.5,82.9l16.1-0.3c0,0-4.4-61.9-6.1-90.3
						c-1.9-30.9-2.3-75.7-2.3-75.7L350.2,170z"/>
				</g>
				<g>
					<polygon class="st11" points="390.5,336 371.5,336.4 370.1,330.1 390.2,330 					"/>
				</g>
			</g>
			<g>
				<path class="st13" d="M333.4,93.2c0,0-6.6,24.5,1.1,77.1c14.4-0.3,38.5-0.9,45.5-1c0.2-7.3-5.2-43.3,1.1-77.9
					c0,0-6-1.2-13.8-1.4c-6.1-0.2-14.9-0.2-20.3,0.4C340,91.2,333.4,93.2,333.4,93.2z"/>
			</g>
			<path class="st15" d="M378.3,116l-7.4-6.2c0.5,4.8,4.8,16.6,7.1,22.6C378,127.2,378,121.7,378.3,116z"/>
			<path class="st3" d="M351.7,107.4l-8.1,16.1c-0.8,1.6,0.9,3.2,2.4,2.4l5.3-2.9c0.6-0.3,1.3-0.3,1.9,0.1l5.2,3.8
				c1.4,1,3.2-0.4,2.6-2l-6.1-17.2C354.4,106.2,352.4,106,351.7,107.4z"/>
			<path class="st14" d="M364.8,67.2c-1.1,6.6-2.2,18.5,2.5,22.8c0,0-1.4,5.9-13.8,8c-8.3-2.7-6.5-7.5-6.5-7.5
				c7.2-1.9,6.9-7.3,5.6-12.3L364.8,67.2z"/>
			<path class="st15" d="M359.8,71.7l-7.2,6.4c0.3,1.2,0.6,2.4,0.7,3.6c2.8-0.5,6.5-3.6,6.8-6.5C360.2,73.7,360.1,72.3,359.8,71.7z"
				/>
			<path class="st14" d="M368.8,59.1c-2.4,8.5-3.4,13.6-8.7,17.1c-8,5.2-17.8-1-18-10.1c-0.2-8.2,3.8-20.7,13-22.3
				C364.1,42.3,371.2,50.6,368.8,59.1z"/>
			<path class="st13" d="M363.7,64.4c-1.1-2.7-1.9-11.7,2.7-13.9c4.7-2.2,9.5,3.2,8.3,5.7C372.8,60.1,366.3,70.7,363.7,64.4z"/>
			<path class="st13" d="M366.4,53.6c-1.1-3-14.9-4.7-16.8-7.9c-2.3-3.8,7.1-4.3,13.5-2.3c5.7,1.7,9.4,3.4,8.8,7.6
				C371.6,53.3,366.4,53.6,366.4,53.6z"/>
			<path class="st13" d="M369.4,50.5c0,0,3,0.8,4.6-1.4C373.6,51.3,371,53.5,369.4,50.5z"/>
			<path class="st13" d="M355.7,41.3c-4.1-3.2-9.7,0.6-9.2,4.7c0.5,4.2,14.4,7.3,14.4,7.3S361.2,45.5,355.7,41.3z"/>
			<path class="st13" d="M346.5,46.1c0.6,2.9,2.8,5.2,7.1,6.9c-4-2.8-5.4-7.3-5.4-7.3L346.5,46.1z"/>
			<path class="st13" d="M355.2,58.7c-0.2,0.7-0.6,1.2-1.1,1.1c-0.5-0.1-0.7-0.8-0.6-1.5c0.2-0.7,0.6-1.2,1.1-1.1
				C355.1,57.4,355.3,58,355.2,58.7z"/>
			<path class="st13" d="M347.2,57c-0.2,0.7-0.6,1.2-1.1,1.1c-0.5-0.1-0.7-0.8-0.6-1.5c0.2-0.7,0.6-1.2,1.1-1.1
				C347.1,55.6,347.4,56.3,347.2,57z"/>
			<path class="st17" d="M349.7,57.9c0,0-2.5,3.7-4.7,5.3c1,1.4,3.2,1.4,3.2,1.4L349.7,57.9z"/>
			<path class="st13" d="M349.8,66.9C349.9,66.9,349.9,66.9,349.8,66.9c3.3,0.7,5.3-1.2,5.4-1.3c0.1-0.1,0.1-0.2,0-0.3
				c-0.1-0.1-0.2-0.1-0.3,0c0,0-1.9,1.9-5,1.2c-0.1,0-0.2,0-0.3,0.2C349.7,66.8,349.7,66.9,349.8,66.9z"/>
			<path class="st13" d="M358.1,56.7c0.1,0,0.2,0,0.3,0c0.2-0.1,0.3-0.3,0.2-0.6c-1-2.1-2.9-2.4-3-2.4c-0.2,0-0.4,0.1-0.5,0.4
				c0,0.2,0.1,0.4,0.4,0.5l0,0c0.1,0,1.6,0.3,2.3,2C357.9,56.6,358,56.6,358.1,56.7z"/>
			<path class="st13" d="M344.3,53.5c0.2,0,0.3,0,0.4-0.1c1.2-1.5,2.7-1.4,2.7-1.4c0.2,0,0.4-0.2,0.5-0.4c0-0.2-0.2-0.4-0.4-0.5
				c-0.1,0-2-0.2-3.5,1.7c-0.1,0.2-0.1,0.4,0.1,0.6C344.2,53.5,344.3,53.5,344.3,53.5z"/>
			<path class="st14" d="M383.3,98.2c1.8,3.2,3.3,6.3,4.9,9.4c1.5,3.2,3,6.4,4.4,9.6c1.4,3.3,2.7,6.6,3.8,10
				c1.2,3.4,2.2,6.8,3.1,10.4l0.6,2.7c0.3,1.3,0.4,2.6,0.3,3.9c-0.1,2.6-0.7,5-1.6,7.1c-1.8,4.2-4.4,7.3-7.1,10
				c-2.7,2.7-5.7,4.9-8.7,6.9c-1.5,1-3.1,1.9-4.6,2.8c-1.6,0.9-3.1,1.7-4.9,2.5l-3.3-5.8c1.2-1,2.5-2,3.8-3.1
				c1.3-1.1,2.5-2.2,3.6-3.3c2.4-2.2,4.6-4.5,6.4-6.9c1.9-2.4,3.4-4.9,4-7.1c0.3-1.1,0.4-2.1,0.4-3c0-0.4-0.1-0.8-0.2-1.2l-0.7-2.2
				c-1.9-6.1-4.4-12.2-7.2-18.2c-1.4-3-2.8-6-4.3-9c-1.4-3-3-6-4.5-8.8L383.3,98.2z"/>
			<path class="st13" d="M381.4,91.4c8.3,1.8,14.1,23.6,14.1,23.6l-14.9,13.5c0,0-7.3-7.7-11-18C365.7,99.6,372.5,89.5,381.4,91.4z"
				/>
			<path class="st14" d="M371.9,166.7l-9.6,0.1l5.9,9.7c0,0,6.8-1.7,7.4-5.1L371.9,166.7z"/>
			<polygon class="st14" points="356.3,172.5 361.6,180.3 368.2,176.5 362.3,166.8 			"/>
			<path class="st14" d="M371.4,66.9c-1.1,2.1-3.1,3.5-5,4.1c-2.8,0.8-4.3-1.7-3.5-4.4c0.7-2.4,3-5.8,5.8-5.4
				C371.6,61.5,372.7,64.5,371.4,66.9z"/>
		</g>
	</g>
</g>
<g id="Hello">
	<g>
		<g>
			
				<rect x="275.8" y="232.8" transform="matrix(0.9974 -7.228435e-02 7.228435e-02 0.9974 -16.1292 20.9293)" class="st11" width="10.7" height="1"/>
			
				<rect x="290.8" y="231.9" transform="matrix(0.9974 -7.229156e-02 7.229156e-02 0.9974 -16.0343 21.8182)" class="st11" width="5.2" height="1"/>
			<path class="st11" d="M342,114.3l-176.5,12.8c-7.6,0.6-13.4,7.3-12.9,14.9l6,83.2c0.6,7.6,7.3,13.4,14.9,12.9l10-0.7
				c1.5-0.1,2.8,1,2.9,2.5l1.1,15.4c0.1,1.3,1.8,1.9,2.6,0.9l16.7-19.3c0.7-0.8,1.7-1.3,2.8-1.4L350,225.3
				c7.6-0.6,13.4-7.3,12.9-14.9l-6-83.2C356.3,119.6,349.6,113.8,342,114.3z"/>
			<g>
				<path class="st3" d="M191.2,165.2l9.5-0.7l0.8,10.8l10.4-0.8l-0.8-10.8l9.6-0.7L223,194l-9.6,0.7l-0.9-12.5l-10.4,0.8l0.9,12.5
					l-9.5,0.7L191.2,165.2z"/>
				<path class="st15" d="M165.4,127.1c-7.6,0.6-13.4,7.3-12.9,14.9l6,83.2c0.6,7.6,7.3,13.4,14.9,12.9l1.5-0.1
					c5-0.4,9.2-4.1,10.1-9l20.1-104.8L165.4,127.1z"/>
				<path class="st3" d="M252.9,182.7l-17.2,1.2c0.3,1.4,0.7,2.4,1.3,3c0.9,0.9,2,1.3,3.3,1.2c0.8-0.1,1.6-0.3,2.4-0.8
					c0.4-0.3,0.9-0.8,1.4-1.5l8.5,0.2c-1.1,2.3-2.6,4.1-4.3,5.2c-1.8,1.1-4.3,1.8-7.7,2c-3,0.2-5.3,0-7.1-0.7s-3.3-1.9-4.5-3.7
					c-1.2-1.7-2-3.8-2.1-6.3c-0.3-3.5,0.7-6.4,2.7-8.7c2.1-2.3,5.1-3.6,9-3.9c3.2-0.2,5.8,0.1,7.7,0.9c1.9,0.8,3.4,2.1,4.5,3.9
					c1.1,1.8,1.8,4.1,2,7.1L252.9,182.7z M243.9,179.2c-0.3-1.6-0.8-2.8-1.6-3.5c-0.8-0.7-1.8-1-2.9-0.9c-1.4,0.1-2.4,0.7-3.1,1.9
					c-0.5,0.7-0.7,1.7-0.8,3.1L243.9,179.2z"/>
				<path class="st3" d="M255.6,160.6l8.6-0.6l2.2,30.9l-8.6,0.6L255.6,160.6z"/>
				<path class="st3" d="M269.9,159.6l8.6-0.6l2.2,30.9l-8.6,0.6L269.9,159.6z"/>
				<path class="st3" d="M284.4,178.4c-0.2-3.4,0.7-6.3,2.8-8.7c2.1-2.4,5.2-3.7,9.1-4c4.5-0.3,8,0.7,10.4,3.2c2,2,3.1,4.5,3.3,7.5
					c0.2,3.4-0.7,6.3-2.8,8.7c-2.1,2.4-5.2,3.7-9.2,4c-3.6,0.3-6.6-0.4-8.9-2.1C286.2,184.9,284.6,182,284.4,178.4z M293,177.7
					c0.1,2,0.7,3.4,1.5,4.3c0.9,0.9,1.9,1.3,3.1,1.2c1.2-0.1,2.2-0.6,2.9-1.6c0.7-1,1-2.5,0.9-4.6c-0.1-1.9-0.6-3.3-1.5-4.2
					c-0.9-0.9-1.9-1.3-3.1-1.2c-1.2,0.1-2.2,0.6-3,1.7C293.1,174.3,292.8,175.8,293,177.7z"/>
				<path class="st3" d="M312.8,156.5l9.2-0.7l0.5,7l-0.7,14.3l-5.7,0.4l-2.7-14L312.8,156.5z M314.8,179.7l8.5-0.6l0.5,7.6
					l-8.5,0.6L314.8,179.7z"/>
			</g>
		</g>
	</g>
</g>
<g id="Character_1">
	<g>
		<path class="st13" d="M163,99.6c0,1.8,0.1,3.3,0.2,4.4c-11.7,4.1-22.6,3.2-28.2,2.2c0.3-1,0.7-2.8,0.8-5.2
			c-0.2,1.7-1.1,3.8-1.8,5.1c-1.8-0.3-2.8-0.6-2.8-0.6s1.8-9.8-1.5-17c-3.3-7.2-1.6-11.2,0.8-12.3c4.6-14.1,21.9-11.9,27.7-6.2
			c7.4,7.3,7.5,27.8,8.8,32.5c-1.1,0.5-2.2,0.9-3.2,1.3C163.5,102.5,163,101,163,99.6z"/>
		<path class="st18" d="M170.1,121.7l0.9,2.8c0.3,1,0.7,2,1,2.9c0.7,2,1.4,4,2.1,5.9c0.8,2,1.5,3.9,2.3,5.9l1.2,3l0.3,0.7l0.1,0.2
			l0,0c0,0,0,0,0,0c0,0-0.2-0.2-0.4-0.3c-0.2-0.1-0.3,0-0.2,0c0.1,0,0.4,0,0.7-0.1c0.6-0.2,1.4-0.6,2.2-1c1.6-0.9,3.3-2.1,4.9-3.3
			c1.6-1.3,3.2-2.6,4.8-4c1.6-1.4,3.1-2.8,4.6-4.3l3.1,2.6c-1.3,1.8-2.6,3.5-4,5.2c-1.4,1.7-2.9,3.3-4.5,4.9
			c-1.6,1.6-3.3,3.1-5.3,4.5c-1,0.7-2.1,1.4-3.5,1.9c-0.7,0.3-1.5,0.5-2.4,0.6c-0.9,0.1-2.1,0.1-3.3-0.4c-1.2-0.5-2.2-1.4-2.8-2.3
			c-0.2-0.2-0.3-0.5-0.4-0.7l-0.3-0.5l-0.4-0.7c-0.5-1-1-2-1.4-2.9c-0.9-2-1.8-4-2.6-6c-0.8-2-1.6-4.1-2.4-6.1
			c-0.4-1-0.7-2.1-1.1-3.1c-0.4-1.1-0.7-2.1-1-3.3L170.1,121.7z"/>
		<path class="st11" d="M167.8,112.8c3.4,0.9,5.9,15.1,5.9,15.1l-9.5,6.5c0,0-9.1-14.3-6.5-18.1
			C160.4,112.3,162.8,111.5,167.8,112.8z"/>
		<g>
			<path class="st11" d="M167.8,112.8c3.4,0.9,5.9,15.1,5.9,15.1l-9.5,6.5c0,0-9.1-14.3-6.5-18.1
				C160.4,112.3,162.8,111.5,167.8,112.8z"/>
			<path class="st19" d="M167.8,112.8c3.4,0.9,5.9,15.1,5.9,15.1l-9.5,6.5c0,0-9.1-14.3-6.5-18.1
				C160.4,112.3,162.8,111.5,167.8,112.8z"/>
		</g>
		<polygon class="st20" points="167.5,115.9 170.1,130.2 164.8,133.9 		"/>
		<path class="st18" d="M194.4,130.6l3.2-7.6l3.9,7.6c0,0-2.5,3.8-5.9,2.9L194.4,130.6z"/>
		<polygon class="st18" points="201.1,122.1 206.1,124.2 201.5,130.6 197.6,122.9 		"/>
		<polygon class="st18" points="149.1,351.5 157.5,351.5 158.1,332.1 149.7,332.1 		"/>
		<polygon class="st18" points="93,326.6 100.7,329.8 110.8,313.1 103.1,309.8 		"/>
		<path class="st13" d="M102.2,328.7l-8-4.9c-0.3-0.2-0.7-0.1-0.9,0.1l-4.8,5.8c-0.5,0.6-0.3,1.6,0.4,2c2.8,1.7,4.3,2.3,7.8,4.5
			c2.2,1.3,5.2,3.5,8.2,5.3c2.9,1.8,5-1,3.9-2.1c-4.8-4.6-4.7-6.8-5.6-9.6C102.9,329.4,102.6,329,102.2,328.7z"/>
		<path class="st13" d="M157.8,350.5h-9.4c-0.3,0-0.6,0.2-0.7,0.6l-1.1,7.4c-0.1,0.8,0.6,1.5,1.3,1.5c3.3-0.1,4.9-0.2,9-0.2
			c2.5,0,7.8,0.3,11.3,0.3c3.4,0,3.7-3.5,2.2-3.8c-6.6-1.4-9.1-3.4-11.3-5.2C158.8,350.7,158.3,350.5,157.8,350.5z"/>
		<g>
			<polygon class="st15" points="158.1,332.1 157.8,342.1 149.4,342.1 149.7,332.1 			"/>
			<polygon class="st15" points="103.1,309.8 110.8,313.1 105.6,321.7 97.9,318.4 			"/>
		</g>
		<g>
			<path class="st11" d="M167.8,112.8c0,0,4,1.4-4,50.5c-13.5,0-27.4,0-34,0c0.6-13.8,0.6-22.3-6-50.7c0,0,7.1-1.5,14.4-1.9
				c5.7-0.3,10.4-0.5,15.4,0C160.3,111.2,167.8,112.8,167.8,112.8z"/>
			<path class="st19" d="M167.8,112.8c0,0,4,1.4-4,50.5c-13.5,0-27.4,0-34,0c0.6-13.8,0.6-22.3-6-50.7c0,0,7.1-1.5,14.4-1.9
				c5.7-0.3,10.4-0.5,15.4,0C160.3,111.2,167.8,112.8,167.8,112.8z"/>
		</g>
		<path class="st3" d="M138.2,110.6c5.7-0.3,10.4-0.5,15.4,0c0.8,0.1,1.7,0.2,2.5,0.3c0.6,1,1,2.3,0.5,3.6c-1.1,2.7-5,3-7.8,3
			c-10.5,0-12.3-6.1-12.4-6.4l-0.1-0.4C137,110.7,137.6,110.7,138.2,110.6z"/>
		<path class="st18" d="M139.8,93.3c1,5,1.9,14.1-1.5,17.4c0,0,1.4,5,10.6,5c10.1,0,4.8-5,4.8-5c-5.5-1.3-5.4-5.4-4.4-9.3
			L139.8,93.3z"/>
		<path class="st13" d="M140.8,89.7c-1.2,3.9,0.5,13.2,2.9,16.8c-4.8-2.8-6.5-11.2-6.5-11.2L140.8,89.7z"/>
		<path class="st15" d="M143.6,96.6l5.6,4.8c-0.2,0.9-0.4,1.8-0.5,2.7c-2.1-0.3-5-2.6-5.2-4.8C143.4,98.1,143.4,97.1,143.6,96.6z"/>
		<path class="st18" d="M135.2,84.4c1.9,8.1,2.6,11.5,7.4,15c7.3,5.2,16.8,1.1,17.3-7.4c0.5-7.6-2.8-19.6-11.3-21.4
			C140.2,68.8,133.2,76.3,135.2,84.4z"/>
		<g>
			<path class="st11" d="M163.8,163.2c0,0,6.6,64.4,6,89.9c-0.6,26.5-10.3,87-10.3,87h-11.3c0,0,1.8-58.9,0.8-85
				c-1.1-28.4-10.1-91.9-10.1-91.9H163.8z"/>
			<path class="st21" d="M163.8,163.2c0,0,6.6,64.4,6,89.9c-0.6,26.5-10.3,87-10.3,87h-11.3c0,0,1.8-58.9,0.8-85
				c-1.1-28.4-10.1-91.9-10.1-91.9H163.8z"/>
		</g>
		<polygon class="st11" points="147.3,340.6 160.5,340.6 161.5,336.4 146.6,335.8 		"/>
		<path class="st15" d="M149.1,179.3c8.3,16.8,1.7,47.4-1.3,58.8c-1.5-17.1-4.1-38-6.1-53.4C143.1,176,145.3,171.5,149.1,179.3z"/>
		<g>
			<path class="st11" d="M154.8,163.2c0,0-7.7,67-13.5,88.5c-6.9,25.5-33.1,69-33.1,69l-10.5-4.5c0,0,16.2-49.4,21.5-62.8
				c11.3-28.7,1.6-71.5,10.6-90.2H154.8z"/>
			<path class="st21" d="M154.8,163.2c0,0-7.7,67-13.5,88.5c-6.9,25.5-33.1,69-33.1,69l-10.5-4.5c0,0,16.2-49.4,21.5-62.8
				c11.3-28.7,1.6-71.5,10.6-90.2H154.8z"/>
		</g>
		<polygon class="st11" points="96.3,316.3 109.3,321.8 112.4,318.3 97.4,311.1 		"/>
		<path class="st13" d="M147.9,84.5c0.1,0.7,0.6,1.1,1,1.1c0.4-0.1,0.7-0.7,0.6-1.3c-0.1-0.7-0.6-1.1-1-1.1
			C148.1,83.2,147.8,83.8,147.9,84.5z"/>
		<path class="st13" d="M155.5,83.2c0.1,0.7,0.6,1.1,1,1.1c0.4-0.1,0.7-0.7,0.6-1.3c-0.1-0.7-0.6-1.1-1-1.1
			C155.6,81.9,155.3,82.5,155.5,83.2z"/>
		<path class="st13" d="M155.8,81.9l1.5-0.7C157.4,81.2,156.8,82.6,155.8,81.9z"/>
		<path class="st22" d="M153.7,84.7c0,0,1.6,2.7,3.1,3.8c-0.7,1-2.3,0.9-2.3,0.9L153.7,84.7z"/>
		<path class="st13" d="M151.5,92.5c0.4,0,0.7,0,1.1-0.1c0.1,0,0.2-0.1,0.2-0.2c0-0.1-0.1-0.2-0.2-0.2c-2.9,0.5-4.6-1.3-4.7-1.3
			c-0.1-0.1-0.2-0.1-0.3,0c-0.1,0.1-0.1,0.2,0,0.3C147.7,91,149.1,92.5,151.5,92.5z"/>
		<path class="st13" d="M138,79.7c0.2,2.4,1,6.3,1,6.3s5-6.3,5.8-9.7c-0.5,2.7-1.1,3.9-1.1,3.9s6.7-1.5,7.4-5.9
			c-0.1,3.6-0.7,5.9-0.7,5.9s6.4-2.5,5.8-6.8c-0.6-4.3-10.5-5.9-15-4.5c-4.5,1.4-9,6.1-7.7,12.5c1.3,6.4,3.9,8.8,3.9,8.8
			S135.6,83.8,138,79.7z"/>
		<path class="st18" d="M134.8,90.5c0.6,1.6,2,2.7,3.3,3.3c2,0.8,3.2-0.9,2.8-2.9c-0.3-1.8-1.7-4.4-3.8-4.3
			C135.1,86.6,134.1,88.7,134.8,90.5z"/>
		<path class="st13" d="M139.2,76.6c-1,4,1.1,13.2,3.7,16.7c-5-2.5-7-10.9-7-10.9L139.2,76.6z"/>
		<path class="st13" d="M145.3,82.2c0.1,0,0.2-0.1,0.2-0.2c0.8-1.6,2.2-1.8,2.3-1.8c0.2,0,0.4-0.2,0.3-0.4c0-0.2-0.2-0.4-0.4-0.3
			c-0.1,0-1.9,0.2-2.9,2.2c-0.1,0.2,0,0.4,0.2,0.5C145.1,82.3,145.2,82.3,145.3,82.2z"/>
		<path class="st13" d="M158.2,79.1c0.1,0,0.2,0,0.3-0.1c0.2-0.2,0.2-0.4,0-0.6c-1.5-1.6-3.3-1.3-3.4-1.3c-0.2,0-0.4,0.2-0.3,0.5
			c0,0.2,0.2,0.4,0.5,0.3c0.1,0,1.5-0.2,2.7,1C158,79.1,158.1,79.1,158.2,79.1z"/>
		<path class="st18" d="M127.9,124.4c-1.4,4.4-2.7,9-3.8,13.5c-1.1,4.6-2.1,9.1-2.5,13.6l-0.1,0.8c0,0.3,0,0.3,0,0.6
			c0,0.4,0,0.9,0.1,1.4c0.1,1,0.3,2.1,0.5,3.3c0.5,2.2,1.1,4.5,1.7,6.8c0.6,2.3,1.3,4.6,1.9,6.9l2,6.9l-3.7,1.5
			c-2.3-4.4-4.3-8.8-6.1-13.4c-0.9-2.3-1.8-4.6-2.5-7.1c-0.4-1.2-0.7-2.5-1-3.8c-0.1-0.7-0.2-1.4-0.3-2.2c0-0.4,0-0.9,0-1.2l0-1
			c0.1-2.6,0.3-5.1,0.7-7.6c0.3-2.5,0.8-4.9,1.3-7.4c1.1-4.9,2.3-9.6,4-14.4L127.9,124.4z"/>
		<g>
			<path class="st11" d="M123.8,112.5c-3.4,1-7.5,12.8-7.5,12.8l13.2,9.4c0,0,4.8-9.8,3.4-14.2C131.4,116,127.7,111.4,123.8,112.5z"
				/>
			<path class="st19" d="M123.8,112.5c-3.4,1-7.5,12.8-7.5,12.8l13.2,9.4c0,0,4.8-9.8,3.4-14.2C131.4,116,127.7,111.4,123.8,112.5z"
				/>
		</g>
		<path class="st11" d="M105.6,331.9c0.3-0.1,0.6-0.3,0.7-0.7c0.1-0.3,0.1-0.5,0-0.7c-0.6-0.9-3.6-0.8-4-0.8c-0.1,0-0.1,0.1-0.2,0.1
			c0,0.1,0,0.2,0,0.2c0.8,0.8,2.3,2.1,3.3,1.9C105.5,331.9,105.5,331.9,105.6,331.9z M102.8,330.1c1.2,0,2.8,0.2,3.1,0.6
			c0,0.1,0.1,0.1,0,0.3c-0.1,0.3-0.3,0.4-0.5,0.5C104.8,331.6,103.8,331.1,102.8,330.1z"/>
		<path class="st11" d="M103.6,329.8c0.9-0.3,1.9-0.8,2.1-1.4c0.1-0.2,0.1-0.5-0.3-0.8c-0.2-0.2-0.5-0.3-0.9-0.2
			c-1.2,0.2-2.5,2.3-2.5,2.3c0,0.1,0,0.1,0,0.2c0,0.1,0.1,0.1,0.2,0.1C102.6,330.1,103.1,330,103.6,329.8z M104.6,327.9
			c0,0,0.1,0,0.1,0c0.2,0,0.4,0,0.5,0.1c0.2,0.2,0.2,0.3,0.2,0.4c-0.2,0.5-1.7,1.2-2.7,1.3C103.1,329,103.9,328.1,104.6,327.9z"/>
		<path class="st11" d="M160.9,352c0.8,0,1.6-0.1,2-0.5c0.3-0.2,0.4-0.6,0.4-1c0-0.2-0.1-0.4-0.3-0.5c-1-0.6-4.4,1.1-4.7,1.3
			c-0.1,0-0.1,0.1-0.1,0.2c0,0.1,0.1,0.1,0.2,0.2C159,351.8,160,352,160.9,352z M162.4,350.3c0.2,0,0.3,0,0.4,0.1
			c0.1,0,0.1,0.1,0.1,0.2c0,0.3-0.1,0.5-0.2,0.6c-0.5,0.5-1.9,0.5-3.7,0.2C160.1,350.9,161.6,350.3,162.4,350.3z"/>
		<path class="st11" d="M158.3,351.7C158.4,351.7,158.4,351.7,158.3,351.7c1.1-0.5,3-2.3,2.9-3.2c0-0.2-0.2-0.5-0.7-0.6
			c-0.4,0-0.8,0.1-1.1,0.3c-1.1,0.9-1.2,3.1-1.3,3.2c0,0.1,0,0.1,0.1,0.2C158.3,351.7,158.3,351.7,158.3,351.7z M160.3,348.3
			c0,0,0.1,0,0.1,0c0.4,0,0.4,0.2,0.4,0.2c0.1,0.6-1.2,2-2.3,2.6c0.1-0.7,0.4-2,1.1-2.6C159.8,348.4,160.1,348.3,160.3,348.3z"/>
		<g>
			<path class="st13" d="M129.3,161.3l-0.9,3c-0.1,0.2,0.2,0.5,0.6,0.5h35c0.3,0,0.6-0.1,0.6-0.3l0.3-3c0-0.2-0.2-0.4-0.6-0.4h-34.4
				C129.6,161,129.4,161.1,129.3,161.3z"/>
		</g>
		<g>
			<path class="st11" d="M133.9,165.1H133c-0.2,0-0.3-0.1-0.3-0.2l0.4-3.9c0-0.1,0.2-0.2,0.4-0.2h0.9c0.2,0,0.3,0.1,0.3,0.2
				l-0.4,3.9C134.3,165,134.1,165.1,133.9,165.1z"/>
			<path class="st21" d="M133.9,165.1H133c-0.2,0-0.3-0.1-0.3-0.2l0.4-3.9c0-0.1,0.2-0.2,0.4-0.2h0.9c0.2,0,0.3,0.1,0.3,0.2
				l-0.4,3.9C134.3,165,134.1,165.1,133.9,165.1z"/>
		</g>
		<g>
			<path class="st11" d="M161.4,165.1h-0.9c-0.2,0-0.3-0.1-0.3-0.2l0.4-3.9c0-0.1,0.2-0.2,0.4-0.2h0.9c0.2,0,0.3,0.1,0.3,0.2
				l-0.4,3.9C161.7,165,161.5,165.1,161.4,165.1z"/>
			<path class="st21" d="M161.4,165.1h-0.9c-0.2,0-0.3-0.1-0.3-0.2l0.4-3.9c0-0.1,0.2-0.2,0.4-0.2h0.9c0.2,0,0.3,0.1,0.3,0.2
				l-0.4,3.9C161.7,165,161.5,165.1,161.4,165.1z"/>
		</g>
		<g>
			<path class="st11" d="M147.6,165.1h-0.9c-0.2,0-0.3-0.1-0.3-0.2l0.4-3.9c0-0.1,0.2-0.2,0.4-0.2h0.9c0.2,0,0.3,0.1,0.3,0.2
				l-0.4,3.9C148,165,147.8,165.1,147.6,165.1z"/>
			<path class="st21" d="M147.6,165.1h-0.9c-0.2,0-0.3-0.1-0.3-0.2l0.4-3.9c0-0.1,0.2-0.2,0.4-0.2h0.9c0.2,0,0.3,0.1,0.3,0.2
				l-0.4,3.9C148,165,147.8,165.1,147.6,165.1z"/>
		</g>
		<path class="st13" d="M148.3,83.2l1.5-0.7C149.9,82.5,149.3,83.9,148.3,83.2z"/>
		<path class="st18" d="M127.5,177.1l7.2,5.5l-8.3,1.8c0,0-3.5-4-2.3-7.3L127.5,177.1z"/>
		<polygon class="st18" points="136.4,189.4 129.4,190.6 125.6,183.4 134.7,182.6 		"/>
	</g>
</g>
</svg>
