<?xml version="1.0" encoding="utf-8"?>
<!-- Generator: Adobe Illustrator 22.0.1, SVG Export Plug-In . SVG Version: 6.00 Build 0)  -->
<svg version="1.1" id="Layer_1" xmlns="http://www.w3.org/2000/svg" xmlns:xlink="http://www.w3.org/1999/xlink" x="0px" y="0px"
	 viewBox="0 0 167.4 167.3" style="enable-background:new 0 0 167.4 167.3;" xml:space="preserve">
<g>
	<path d="M167.4,83.9c-0.2,46.5-37.5,83.7-84,83.4C36.8,167.1-0.2,129.9,0,83.4C0.2,36.7,37.6-0.3,84.4,0
		C130.6,0.3,167.6,37.6,167.4,83.9z M144,132.1c-0.2-2.8-0.3-5-0.6-7.2c-2.8-23.1-14-40.5-34.7-51.6c-2.3-1.2-4-1.2-6.2,0.5
		c-11.7,8.8-26.8,8.8-38.4,0c-2.3-1.8-3.9-1.6-6.2-0.4C40.1,82.9,29.3,97.6,24.8,117c-1.2,4.9-1.5,10-2.2,15.2
		C63.6,132.1,103.6,132.1,144,132.1z M113.5,46.3c0-16.6-13.6-30-30.4-29.9C66.5,16.5,53,29.8,52.9,46.1
		c-0.1,16.6,13.5,30.2,30.2,30.2C99.9,76.4,113.4,63,113.5,46.3z"/>
</g>
</svg>
