<?xml version="1.0" encoding="utf-8"?>
<!-- Generator: Adobe Illustrator 22.0.1, SVG Export Plug-In . SVG Version: 6.00 Build 0)  -->
<svg version="1.1" id="Layer_1" xmlns="http://www.w3.org/2000/svg" xmlns:xlink="http://www.w3.org/1999/xlink" x="0px" y="0px"
	 viewBox="0 0 391.7 78.8" style="enable-background:new 0 0 391.7 78.8;" xml:space="preserve">
<style type="text/css">
	.st0{enable-background:new    ;}
	.st1{fill:#2C3289;}
	.st2{fill:#E1251B;}
</style>
<g class="st0">
	<path class="st1" d="M48.2,61.5c0,0.4,0,0.8-0.1,1.2c-0.1,0.4-0.2,0.9-0.4,1.3c-0.2,0.4-0.5,0.8-0.8,1.2s-0.7,0.7-1.1,1
		c-0.4,0.3-0.9,0.5-1.5,0.7C43.6,67,43,67,42.2,67h-2l-1,5.2c0,0.1,0,0.1-0.1,0.1c0,0-0.1,0.1-0.2,0.1c-0.1,0-0.2,0-0.3,0.1
		c-0.1,0-0.3,0-0.5,0c-0.2,0-0.3,0-0.4,0c-0.1,0-0.2,0-0.3-0.1c-0.1,0-0.1-0.1-0.1-0.1c0,0,0-0.1,0-0.2l2.6-13.3
		c0.1-0.3,0.2-0.5,0.4-0.6c0.2-0.1,0.4-0.2,0.6-0.2h2.8c0.4,0,0.7,0,1,0c0.3,0,0.6,0.1,0.8,0.1c0.4,0.1,0.8,0.2,1.1,0.4
		c0.3,0.2,0.6,0.4,0.8,0.7c0.2,0.3,0.4,0.6,0.5,0.9C48.1,60.7,48.2,61.1,48.2,61.5z M46.2,61.7c0-0.5-0.1-0.9-0.3-1.2
		c-0.2-0.3-0.6-0.6-1.1-0.7c-0.2-0.1-0.4-0.1-0.6-0.1c-0.2,0-0.4,0-0.7,0h-1.8l-1.1,5.8h1.8c0.5,0,1-0.1,1.3-0.2
		c0.4-0.1,0.7-0.3,1-0.5c0.3-0.2,0.5-0.4,0.7-0.7c0.2-0.3,0.3-0.5,0.5-0.8c0.1-0.3,0.2-0.6,0.3-0.8S46.2,61.9,46.2,61.7z"/>
	<path class="st1" d="M56.7,72.2c0,0.1-0.1,0.2-0.2,0.3c-0.1,0.1-0.4,0.1-0.7,0.1c-0.1,0-0.3,0-0.4,0c-0.1,0-0.2,0-0.2-0.1
		c-0.1,0-0.1-0.1-0.1-0.1c0,0,0-0.1,0-0.2l0.4-1.9c-0.1,0.2-0.3,0.5-0.5,0.8c-0.3,0.3-0.6,0.5-0.9,0.8c-0.3,0.2-0.7,0.4-1.2,0.6
		c-0.4,0.2-0.9,0.2-1.3,0.2c-0.6,0-1.1-0.1-1.5-0.3c-0.4-0.2-0.7-0.5-0.9-0.8c-0.2-0.3-0.4-0.7-0.5-1.2c-0.1-0.4-0.1-0.9-0.1-1.3
		c0-0.4,0-0.9,0.1-1.4c0.1-0.5,0.2-1.1,0.4-1.6c0.2-0.6,0.4-1.1,0.7-1.6c0.3-0.5,0.6-1,1-1.4c0.4-0.4,0.8-0.7,1.4-1
		c0.5-0.3,1.1-0.4,1.8-0.4c0.7,0,1.2,0.1,1.7,0.4c0.5,0.3,0.9,0.6,1.3,1.1l0.2-1c0-0.1,0.1-0.2,0.3-0.3c0.1-0.1,0.4-0.1,0.7-0.1
		c0.1,0,0.3,0,0.4,0c0.1,0,0.2,0,0.2,0.1c0.1,0,0.1,0.1,0.1,0.1c0,0,0,0.1,0,0.1L56.7,72.2z M56.4,64.8c-0.3-0.5-0.7-0.9-1.1-1.2
		c-0.4-0.3-0.9-0.4-1.4-0.4c-0.4,0-0.8,0.1-1.1,0.3c-0.3,0.2-0.6,0.4-0.9,0.7c-0.2,0.3-0.5,0.7-0.6,1.1c-0.2,0.4-0.3,0.8-0.4,1.2
		c-0.1,0.4-0.2,0.8-0.3,1.2s-0.1,0.8-0.1,1.1c0,0.3,0,0.5,0.1,0.8c0,0.3,0.1,0.5,0.2,0.7c0.1,0.2,0.3,0.4,0.5,0.5
		c0.2,0.1,0.5,0.2,0.8,0.2c0.4,0,0.8-0.1,1.2-0.3s0.8-0.5,1.2-0.9c0.4-0.4,0.7-0.9,0.9-1.4c0.3-0.5,0.5-1.1,0.6-1.8L56.4,64.8z"/>
	<path class="st1" d="M70.3,65.3c0,0.4,0,0.9-0.1,1.5c-0.1,0.5-0.2,1.1-0.4,1.6c-0.2,0.6-0.4,1.1-0.7,1.6c-0.3,0.5-0.6,1-1,1.4
		c-0.4,0.4-0.8,0.7-1.4,1c-0.5,0.2-1.1,0.4-1.8,0.4c-0.3,0-0.6,0-0.9-0.1c-0.3-0.1-0.5-0.2-0.8-0.3c-0.2-0.1-0.4-0.3-0.6-0.4
		c-0.2-0.2-0.4-0.3-0.5-0.5l-0.9,4.8c0,0.1,0,0.1-0.1,0.2c0,0-0.1,0.1-0.2,0.1s-0.2,0.1-0.3,0.1c-0.1,0-0.3,0-0.5,0
		c-0.2,0-0.3,0-0.4,0c-0.1,0-0.2,0-0.3-0.1s-0.1-0.1-0.1-0.1c0,0,0-0.1,0-0.2l2.8-14c0-0.1,0.1-0.2,0.2-0.3c0.1-0.1,0.4-0.1,0.7-0.1
		c0.2,0,0.3,0,0.4,0c0.1,0,0.2,0,0.2,0.1c0.1,0,0.1,0.1,0.1,0.1c0,0,0,0.1,0,0.2l-0.4,1.9c0.1-0.2,0.3-0.5,0.5-0.8
		c0.2-0.3,0.5-0.5,0.9-0.8c0.3-0.2,0.7-0.4,1.2-0.6c0.4-0.2,0.9-0.2,1.3-0.2c0.6,0,1,0.1,1.4,0.3c0.4,0.2,0.7,0.5,0.9,0.8
		c0.2,0.3,0.4,0.7,0.5,1.1C70.2,64.4,70.3,64.8,70.3,65.3z M68.4,65.5c0-0.3,0-0.6-0.1-0.9c-0.1-0.3-0.1-0.5-0.3-0.7
		c-0.1-0.2-0.3-0.3-0.5-0.4s-0.4-0.2-0.7-0.2c-0.4,0-0.8,0.1-1.2,0.3c-0.4,0.2-0.8,0.5-1.2,0.9s-0.7,0.9-1,1.4s-0.5,1.1-0.6,1.8
		l-0.4,1.8c0.3,0.5,0.7,0.9,1.1,1.2c0.4,0.3,0.9,0.4,1.4,0.4c0.4,0,0.8-0.1,1.1-0.3s0.6-0.4,0.9-0.7c0.2-0.3,0.5-0.7,0.6-1.1
		c0.2-0.4,0.3-0.8,0.5-1.2c0.1-0.4,0.2-0.8,0.3-1.3S68.4,65.8,68.4,65.5z"/>
	<path class="st1" d="M81.5,64.3c0,0.5-0.1,1-0.4,1.4c-0.2,0.4-0.6,0.8-1.1,1c-0.5,0.3-1.2,0.5-1.9,0.7c-0.8,0.2-1.7,0.2-2.8,0.2H74
		c-0.1,0.2-0.1,0.5-0.1,0.7c0,0.2,0,0.4,0,0.6c0,0.7,0.2,1.3,0.6,1.7c0.4,0.4,1,0.6,1.8,0.6c0.5,0,0.9,0,1.3-0.1s0.7-0.1,1-0.2
		s0.5-0.2,0.7-0.2s0.3-0.1,0.4-0.1s0.1,0,0.2,0.1c0,0,0.1,0.1,0.1,0.2c0,0.1,0,0.2,0,0.3c0,0.1,0,0.2-0.1,0.3s-0.1,0.2-0.1,0.3
		c0,0.1-0.1,0.2-0.2,0.2c-0.1,0.1-0.2,0.2-0.5,0.3s-0.5,0.2-0.8,0.2c-0.3,0.1-0.7,0.1-1,0.2c-0.4,0-0.7,0.1-1.1,0.1
		c-0.7,0-1.2-0.1-1.7-0.2c-0.5-0.1-0.9-0.4-1.2-0.7c-0.3-0.3-0.6-0.7-0.7-1.2c-0.2-0.5-0.2-1-0.2-1.6c0-0.5,0-1,0.1-1.6
		s0.2-1.1,0.4-1.6c0.2-0.5,0.5-1.1,0.8-1.6c0.3-0.5,0.7-0.9,1.1-1.3c0.4-0.4,1-0.7,1.5-0.9c0.6-0.2,1.2-0.3,2-0.3
		c0.6,0,1.2,0.1,1.6,0.2c0.4,0.2,0.8,0.4,1.1,0.6c0.3,0.2,0.5,0.5,0.6,0.8C81.4,63.7,81.5,64,81.5,64.3z M79.6,64.4
		c0-0.4-0.1-0.7-0.4-0.9c-0.3-0.2-0.7-0.3-1.3-0.3c-0.5,0-0.9,0.1-1.3,0.3c-0.4,0.2-0.7,0.4-1,0.7c-0.3,0.3-0.5,0.6-0.7,1
		s-0.4,0.8-0.5,1.2h1.1c0.8,0,1.4,0,2-0.1c0.5-0.1,0.9-0.2,1.3-0.4c0.3-0.2,0.5-0.4,0.7-0.6S79.6,64.7,79.6,64.4z"/>
	<path class="st1" d="M90.4,62.2c0,0,0,0.1,0,0.2c0,0.1,0,0.2,0,0.3c0,0.1,0,0.2-0.1,0.3c0,0.1-0.1,0.2-0.1,0.3
		c0,0.1-0.1,0.2-0.1,0.3c0,0.1-0.1,0.1-0.2,0.1c-0.1,0-0.1,0-0.2,0c-0.1,0-0.1-0.1-0.2-0.1c-0.1,0-0.2-0.1-0.3-0.1s-0.2,0-0.4,0
		c-0.3,0-0.5,0.1-0.9,0.3c-0.3,0.2-0.7,0.5-1,0.9c-0.3,0.4-0.6,0.8-0.9,1.4c-0.3,0.5-0.5,1.1-0.6,1.7l-0.9,4.5c0,0.1,0,0.1-0.1,0.2
		s-0.1,0.1-0.2,0.1s-0.2,0.1-0.3,0.1c-0.1,0-0.3,0-0.5,0c-0.2,0-0.3,0-0.5,0c-0.1,0-0.2,0-0.3-0.1c-0.1,0-0.1-0.1-0.1-0.1
		c0,0,0-0.1,0-0.2l2-10c0-0.1,0-0.1,0.1-0.1c0,0,0.1-0.1,0.2-0.1c0.1,0,0.2,0,0.3-0.1c0.1,0,0.2,0,0.4,0c0.2,0,0.3,0,0.4,0
		c0.1,0,0.2,0,0.2,0.1c0.1,0,0.1,0.1,0.1,0.1c0,0,0,0.1,0,0.1L86,64c0.2-0.3,0.4-0.6,0.6-0.9c0.2-0.3,0.5-0.5,0.8-0.7
		c0.3-0.2,0.6-0.4,0.9-0.5c0.3-0.1,0.6-0.2,0.9-0.2c0.1,0,0.3,0,0.4,0s0.3,0,0.4,0.1c0.1,0,0.2,0.1,0.3,0.1c0.1,0,0.1,0.1,0.2,0.1
		C90.4,62.1,90.4,62.1,90.4,62.2z"/>
	<path class="st1" d="M91.6,70.6c0,0.4-0.1,0.8-0.3,1.3c-0.2,0.4-0.5,0.8-0.8,1.3l-2,2.3c-0.1,0.1-0.2,0.2-0.4,0.2s-0.4,0.1-0.6,0.1
		c-0.1,0-0.2,0-0.3,0c-0.1,0-0.1,0-0.2-0.1c0,0,0-0.1,0-0.1c0-0.1,0-0.1,0.1-0.2l2.1-3.1l0.3-1.3c0-0.2,0.1-0.4,0.1-0.5
		c0.1-0.1,0.1-0.2,0.2-0.3c0.1-0.1,0.2-0.1,0.3-0.1c0.1,0,0.3,0,0.5,0c0.2,0,0.3,0,0.5,0s0.2,0.1,0.3,0.1c0.1,0,0.1,0.1,0.2,0.2
		C91.6,70.4,91.6,70.5,91.6,70.6z"/>
	<path class="st1" d="M109.2,59.2c0,0.1,0,0.1,0,0.2s0,0.2,0,0.2c0,0.1,0,0.2-0.1,0.3c0,0.1-0.1,0.2-0.1,0.2c0,0.1-0.1,0.1-0.1,0.2
		s-0.1,0.1-0.2,0.1c-0.1,0-0.2,0-0.3-0.1s-0.3-0.2-0.6-0.3c-0.2-0.1-0.5-0.2-0.8-0.3c-0.3-0.1-0.7-0.1-1.1-0.1
		c-0.5,0-0.8,0.1-1.2,0.2c-0.3,0.1-0.6,0.3-0.9,0.6c-0.2,0.2-0.4,0.5-0.5,0.8s-0.2,0.6-0.2,0.9c0,0.3,0.1,0.6,0.2,0.9
		c0.1,0.2,0.3,0.5,0.6,0.7c0.2,0.2,0.5,0.4,0.8,0.6c0.3,0.2,0.6,0.4,0.9,0.5c0.3,0.2,0.6,0.4,0.9,0.6c0.3,0.2,0.6,0.5,0.8,0.7
		c0.2,0.3,0.4,0.6,0.6,1c0.1,0.4,0.2,0.8,0.2,1.3c0,0.6-0.1,1.2-0.4,1.8s-0.6,1-1.1,1.4c-0.5,0.4-1.1,0.7-1.7,1
		c-0.7,0.2-1.4,0.4-2.3,0.4c-0.5,0-0.9,0-1.3-0.1c-0.4-0.1-0.7-0.2-1.1-0.3c-0.3-0.1-0.6-0.2-0.8-0.4c-0.2-0.1-0.4-0.2-0.5-0.3
		c-0.1-0.1-0.1-0.2-0.1-0.4c0,0,0-0.1,0-0.2c0-0.1,0-0.2,0.1-0.3s0-0.2,0.1-0.3c0-0.1,0.1-0.2,0.1-0.3c0-0.1,0.1-0.1,0.1-0.2
		c0,0,0.1-0.1,0.2-0.1c0.1,0,0.3,0.1,0.4,0.2s0.4,0.2,0.7,0.4c0.3,0.1,0.6,0.3,0.9,0.4c0.4,0.1,0.8,0.2,1.3,0.2c0.5,0,1-0.1,1.4-0.2
		c0.4-0.1,0.8-0.3,1-0.6s0.5-0.5,0.6-0.9s0.2-0.7,0.2-1.1c0-0.3-0.1-0.6-0.2-0.9c-0.1-0.3-0.3-0.5-0.6-0.7c-0.2-0.2-0.5-0.4-0.8-0.6
		c-0.3-0.2-0.6-0.3-0.9-0.5s-0.6-0.4-0.9-0.6s-0.6-0.5-0.8-0.7c-0.2-0.3-0.4-0.6-0.6-1c-0.1-0.4-0.2-0.8-0.2-1.3
		c0-0.6,0.1-1.1,0.3-1.6c0.2-0.5,0.6-1,1-1.3c0.4-0.4,0.9-0.7,1.5-0.9c0.6-0.2,1.3-0.3,2-0.3c0.4,0,0.7,0,1,0.1
		c0.3,0.1,0.6,0.1,0.9,0.2s0.5,0.2,0.7,0.3c0.2,0.1,0.3,0.2,0.4,0.3s0.1,0.1,0.1,0.2C109.2,59,109.2,59.1,109.2,59.2z"/>
	<path class="st1" d="M117.2,62.3c0,0.1,0,0.1,0,0.2c0,0.1,0,0.2,0,0.2c0,0.1-0.1,0.2-0.1,0.2c0,0.1-0.1,0.2-0.1,0.2
		c0,0.1-0.1,0.1-0.1,0.2s-0.1,0.1-0.2,0.1h-2.6l-1.1,5.6c0,0.2-0.1,0.3-0.1,0.5c0,0.2,0,0.4,0,0.5c0,0.4,0.1,0.7,0.2,0.8
		s0.4,0.3,0.8,0.3c0.2,0,0.4,0,0.5-0.1s0.3-0.1,0.4-0.1c0.1,0,0.2-0.1,0.3-0.1c0.1,0,0.2-0.1,0.2-0.1c0.1,0,0.1,0,0.1,0.1
		c0,0,0,0.1,0,0.2c0,0.1,0,0.2,0,0.3s0,0.2-0.1,0.3s-0.1,0.2-0.1,0.3c0,0.1-0.1,0.2-0.1,0.2c-0.1,0.1-0.1,0.1-0.3,0.2
		c-0.1,0.1-0.3,0.1-0.4,0.1c-0.2,0-0.3,0.1-0.5,0.1c-0.2,0-0.3,0-0.5,0c-0.4,0-0.8,0-1.1-0.1c-0.3-0.1-0.6-0.2-0.8-0.4
		c-0.2-0.2-0.4-0.4-0.5-0.7c-0.1-0.3-0.1-0.6-0.1-1c0-0.1,0-0.2,0-0.3s0-0.2,0-0.3c0-0.1,0-0.2,0.1-0.4s0-0.2,0.1-0.3l1.1-5.6h-1.4
		c-0.1,0-0.1,0-0.2-0.1c0,0-0.1-0.1-0.1-0.3c0-0.1,0-0.2,0-0.4c0-0.1,0.1-0.3,0.1-0.4c0-0.1,0.1-0.2,0.2-0.3
		c0.1-0.1,0.2-0.1,0.3-0.1h1.4l0.5-2.4c0-0.1,0-0.1,0.1-0.1c0,0,0.1-0.1,0.2-0.1s0.2-0.1,0.3-0.1s0.3,0,0.5,0c0.2,0,0.3,0,0.4,0
		s0.2,0,0.3,0.1c0.1,0,0.1,0.1,0.1,0.1c0,0,0,0.1,0,0.1l-0.5,2.4h2.6c0.1,0,0.2,0,0.2,0.1S117.2,62.2,117.2,62.3z"/>
	<path class="st1" d="M125.7,72.2c0,0.1-0.1,0.2-0.2,0.3c-0.1,0.1-0.4,0.1-0.7,0.1c-0.1,0-0.3,0-0.4,0c-0.1,0-0.2,0-0.2-0.1
		c-0.1,0-0.1-0.1-0.1-0.1c0,0,0-0.1,0-0.2l0.4-1.9c-0.1,0.2-0.3,0.5-0.5,0.8c-0.3,0.3-0.6,0.5-0.9,0.8c-0.3,0.2-0.7,0.4-1.2,0.6
		c-0.4,0.2-0.9,0.2-1.3,0.2c-0.6,0-1.1-0.1-1.5-0.3c-0.4-0.2-0.7-0.5-0.9-0.8c-0.2-0.3-0.4-0.7-0.5-1.2c-0.1-0.4-0.1-0.9-0.1-1.3
		c0-0.4,0-0.9,0.1-1.4c0.1-0.5,0.2-1.1,0.4-1.6c0.2-0.6,0.4-1.1,0.7-1.6c0.3-0.5,0.6-1,1-1.4c0.4-0.4,0.8-0.7,1.4-1
		c0.5-0.3,1.1-0.4,1.8-0.4c0.7,0,1.2,0.1,1.7,0.4c0.5,0.3,0.9,0.6,1.3,1.1l0.2-1c0-0.1,0.1-0.2,0.3-0.3c0.1-0.1,0.4-0.1,0.7-0.1
		c0.1,0,0.3,0,0.4,0c0.1,0,0.2,0,0.2,0.1c0.1,0,0.1,0.1,0.1,0.1c0,0,0,0.1,0,0.1L125.7,72.2z M125.3,64.8c-0.3-0.5-0.7-0.9-1.1-1.2
		c-0.4-0.3-0.9-0.4-1.4-0.4c-0.4,0-0.8,0.1-1.1,0.3c-0.3,0.2-0.6,0.4-0.9,0.7c-0.2,0.3-0.5,0.7-0.6,1.1c-0.2,0.4-0.3,0.8-0.4,1.2
		c-0.1,0.4-0.2,0.8-0.3,1.2s-0.1,0.8-0.1,1.1c0,0.3,0,0.5,0.1,0.8c0,0.3,0.1,0.5,0.2,0.7c0.1,0.2,0.3,0.4,0.5,0.5
		c0.2,0.1,0.5,0.2,0.8,0.2c0.4,0,0.8-0.1,1.2-0.3s0.8-0.5,1.2-0.9c0.4-0.4,0.7-0.9,0.9-1.4c0.3-0.5,0.5-1.1,0.6-1.8L125.3,64.8z"/>
	<path class="st1" d="M138.4,72.2c0,0.1,0,0.1-0.1,0.2s-0.1,0.1-0.2,0.1s-0.2,0.1-0.3,0.1c-0.1,0-0.3,0-0.5,0s-0.3,0-0.4,0
		c-0.1,0-0.2,0-0.3-0.1s-0.1-0.1-0.1-0.1c0,0,0-0.1,0-0.2l1.8-8.8h-5.2L132,69c0,0.2-0.1,0.3-0.1,0.5c0,0.2,0,0.4,0,0.5
		c0,0.4,0.1,0.7,0.2,0.8s0.4,0.3,0.8,0.3c0.2,0,0.4,0,0.5-0.1s0.3-0.1,0.4-0.1c0.1,0,0.2-0.1,0.3-0.1c0.1,0,0.2-0.1,0.2-0.1
		c0.1,0,0.1,0,0.1,0.1c0,0,0,0.1,0,0.2c0,0.1,0,0.2,0,0.3s0,0.2-0.1,0.3s-0.1,0.2-0.1,0.3c0,0.1-0.1,0.2-0.1,0.2
		c-0.1,0.1-0.1,0.1-0.3,0.2c-0.1,0.1-0.3,0.1-0.4,0.1c-0.2,0-0.3,0.1-0.5,0.1c-0.2,0-0.3,0-0.5,0c-0.4,0-0.8,0-1.1-0.1
		c-0.3-0.1-0.6-0.2-0.8-0.4c-0.2-0.2-0.4-0.4-0.5-0.7c-0.1-0.3-0.1-0.6-0.1-1c0-0.1,0-0.2,0-0.3s0-0.2,0-0.3c0-0.1,0-0.2,0.1-0.4
		s0-0.2,0.1-0.3l1.1-5.6h-1.4c-0.1,0-0.1,0-0.2-0.1c0,0-0.1-0.1-0.1-0.3c0-0.1,0-0.2,0-0.4c0-0.1,0.1-0.3,0.1-0.4
		c0-0.1,0.1-0.2,0.2-0.3c0.1-0.1,0.2-0.1,0.3-0.1h1.4l0.5-2.4c0-0.1,0-0.1,0.1-0.1c0,0,0.1-0.1,0.2-0.1s0.2-0.1,0.3-0.1s0.3,0,0.5,0
		c0.2,0,0.3,0,0.4,0c0.1,0,0.2,0,0.3,0.1s0.1,0.1,0.1,0.1s0,0.1,0,0.1l-0.5,2.4h6.4c0.2,0,0.4,0.1,0.4,0.2c0.1,0.1,0.1,0.2,0,0.4
		L138.4,72.2z M141.2,58.8c0,0.2-0.1,0.4-0.1,0.5c-0.1,0.1-0.1,0.3-0.3,0.3c-0.1,0.1-0.2,0.1-0.4,0.2c-0.2,0-0.3,0.1-0.6,0.1
		s-0.4,0-0.5-0.1s-0.2-0.1-0.3-0.2c-0.1-0.1-0.1-0.2-0.1-0.3c0-0.1,0-0.3,0-0.5c0-0.2,0.1-0.4,0.2-0.5c0.1-0.1,0.1-0.3,0.3-0.3
		c0.1-0.1,0.2-0.2,0.4-0.2s0.3-0.1,0.6-0.1s0.4,0,0.5,0.1s0.2,0.1,0.3,0.2c0.1,0.1,0.1,0.2,0.1,0.3
		C141.3,58.5,141.3,58.6,141.2,58.8z"/>
	<path class="st1" d="M151.9,65.5c0,0.5-0.1,1.1-0.2,1.7c-0.1,0.6-0.3,1.1-0.5,1.7c-0.2,0.5-0.5,1-0.8,1.5c-0.3,0.5-0.7,0.9-1.2,1.2
		c-0.4,0.3-0.9,0.6-1.5,0.8c-0.6,0.2-1.2,0.3-1.9,0.3c-0.7,0-1.3-0.1-1.8-0.3c-0.5-0.2-0.9-0.4-1.3-0.7s-0.6-0.7-0.7-1.2
		c-0.2-0.5-0.2-1-0.2-1.6c0-0.6,0-1.1,0.2-1.7c0.1-0.6,0.3-1.1,0.5-1.6s0.5-1,0.8-1.5c0.3-0.5,0.7-0.9,1.1-1.2
		c0.4-0.3,0.9-0.6,1.5-0.8c0.6-0.2,1.2-0.3,1.9-0.3c0.7,0,1.3,0.1,1.8,0.3c0.5,0.2,0.9,0.4,1.3,0.8c0.3,0.3,0.6,0.7,0.7,1.2
		C151.9,64.4,151.9,64.9,151.9,65.5z M150,65.6c0-0.4,0-0.7-0.1-1c-0.1-0.3-0.2-0.5-0.4-0.8c-0.2-0.2-0.4-0.4-0.7-0.5
		c-0.3-0.1-0.6-0.2-1.1-0.2c-0.4,0-0.9,0.1-1.2,0.2s-0.7,0.4-1,0.6c-0.3,0.3-0.5,0.6-0.7,1s-0.4,0.8-0.5,1.2s-0.2,0.8-0.3,1.3
		c-0.1,0.4-0.1,0.9-0.1,1.3c0,0.4,0,0.7,0.1,1c0.1,0.3,0.2,0.5,0.4,0.8c0.2,0.2,0.4,0.4,0.7,0.5c0.3,0.1,0.6,0.2,1.1,0.2
		c0.5,0,0.9-0.1,1.2-0.2c0.4-0.2,0.7-0.4,1-0.7c0.3-0.3,0.5-0.6,0.7-1c0.2-0.4,0.4-0.8,0.5-1.2c0.1-0.4,0.2-0.8,0.3-1.3
		C150,66.5,150,66.1,150,65.6z"/>
	<path class="st1" d="M163.3,64.4c0,0.3,0,0.5,0,0.8s-0.1,0.5-0.1,0.8l-1.3,6.3c0,0.1,0,0.1-0.1,0.2s-0.1,0.1-0.2,0.1
		s-0.2,0.1-0.3,0.1c-0.1,0-0.3,0-0.5,0c-0.2,0-0.3,0-0.4,0c-0.1,0-0.2,0-0.3-0.1c-0.1,0-0.1-0.1-0.1-0.1s0-0.1,0-0.2l1.2-6.2
		c0.1-0.2,0.1-0.5,0.1-0.7c0-0.2,0-0.4,0-0.6c0-0.5-0.1-0.8-0.3-1.1c-0.2-0.3-0.5-0.4-1-0.4c-0.4,0-0.8,0.1-1.2,0.3
		c-0.4,0.2-0.8,0.5-1.1,0.9c-0.4,0.4-0.7,0.9-0.9,1.4s-0.5,1.1-0.6,1.8l-0.9,4.5c0,0.1,0,0.1-0.1,0.2s-0.1,0.1-0.2,0.1
		s-0.2,0.1-0.3,0.1c-0.1,0-0.3,0-0.5,0c-0.2,0-0.3,0-0.5,0c-0.1,0-0.2,0-0.3-0.1c-0.1,0-0.1-0.1-0.1-0.1c0,0,0-0.1,0-0.2l2-10
		c0-0.1,0-0.1,0.1-0.1c0,0,0.1-0.1,0.2-0.1c0.1,0,0.2,0,0.3-0.1c0.1,0,0.2,0,0.4,0c0.2,0,0.3,0,0.4,0c0.1,0,0.2,0,0.2,0.1
		c0.1,0,0.1,0.1,0.1,0.1c0,0,0,0.1,0,0.1l-0.4,1.9c0.1-0.3,0.3-0.5,0.5-0.8c0.3-0.3,0.6-0.5,0.9-0.8c0.3-0.2,0.7-0.4,1.2-0.6
		c0.4-0.2,0.9-0.2,1.3-0.2c0.5,0,0.9,0.1,1.2,0.2s0.6,0.4,0.8,0.6c0.2,0.3,0.4,0.5,0.4,0.9C163.2,63.7,163.3,64.1,163.3,64.4z"/>
	<path class="st1" d="M174.8,64.3c0,0.5-0.1,1-0.4,1.4c-0.2,0.4-0.6,0.8-1.1,1c-0.5,0.3-1.2,0.5-1.9,0.7c-0.8,0.2-1.7,0.2-2.8,0.2
		h-1.2c-0.1,0.2-0.1,0.5-0.1,0.7c0,0.2,0,0.4,0,0.6c0,0.7,0.2,1.3,0.6,1.7c0.4,0.4,1,0.6,1.8,0.6c0.5,0,0.9,0,1.3-0.1s0.7-0.1,1-0.2
		s0.5-0.2,0.7-0.2s0.3-0.1,0.4-0.1s0.1,0,0.2,0.1c0,0,0.1,0.1,0.1,0.2c0,0.1,0,0.2,0,0.3c0,0.1,0,0.2-0.1,0.3s-0.1,0.2-0.1,0.3
		c0,0.1-0.1,0.2-0.2,0.2c-0.1,0.1-0.2,0.2-0.5,0.3s-0.5,0.2-0.8,0.2c-0.3,0.1-0.7,0.1-1,0.2c-0.4,0-0.7,0.1-1.1,0.1
		c-0.7,0-1.2-0.1-1.7-0.2c-0.5-0.1-0.9-0.4-1.2-0.7c-0.3-0.3-0.6-0.7-0.7-1.2c-0.2-0.5-0.2-1-0.2-1.6c0-0.5,0-1,0.1-1.6
		s0.2-1.1,0.4-1.6c0.2-0.5,0.5-1.1,0.8-1.6c0.3-0.5,0.7-0.9,1.1-1.3c0.4-0.4,1-0.7,1.5-0.9c0.6-0.2,1.2-0.3,2-0.3
		c0.6,0,1.2,0.1,1.6,0.2c0.4,0.2,0.8,0.4,1.1,0.6c0.3,0.2,0.5,0.5,0.6,0.8C174.7,63.7,174.8,64,174.8,64.3z M172.9,64.4
		c0-0.4-0.1-0.7-0.4-0.9c-0.3-0.2-0.7-0.3-1.3-0.3c-0.5,0-0.9,0.1-1.3,0.3c-0.4,0.2-0.7,0.4-1,0.7c-0.3,0.3-0.5,0.6-0.7,1
		s-0.4,0.8-0.5,1.2h1.1c0.8,0,1.4,0,2-0.1c0.5-0.1,0.9-0.2,1.3-0.4c0.3-0.2,0.5-0.4,0.7-0.6S172.9,64.7,172.9,64.4z"/>
	<path class="st1" d="M183.8,62.2c0,0,0,0.1,0,0.2c0,0.1,0,0.2,0,0.3c0,0.1,0,0.2-0.1,0.3c0,0.1-0.1,0.2-0.1,0.3
		c0,0.1-0.1,0.2-0.1,0.3c0,0.1-0.1,0.1-0.2,0.1c-0.1,0-0.1,0-0.2,0c-0.1,0-0.1-0.1-0.2-0.1c-0.1,0-0.2-0.1-0.3-0.1s-0.2,0-0.4,0
		c-0.3,0-0.5,0.1-0.9,0.3c-0.3,0.2-0.7,0.5-1,0.9c-0.3,0.4-0.6,0.8-0.9,1.4c-0.3,0.5-0.5,1.1-0.6,1.7l-0.9,4.5c0,0.1,0,0.1-0.1,0.2
		s-0.1,0.1-0.2,0.1s-0.2,0.1-0.3,0.1c-0.1,0-0.3,0-0.5,0c-0.2,0-0.3,0-0.5,0c-0.1,0-0.2,0-0.3-0.1c-0.1,0-0.1-0.1-0.1-0.1
		c0,0,0-0.1,0-0.2l2-10c0-0.1,0-0.1,0.1-0.1c0,0,0.1-0.1,0.2-0.1c0.1,0,0.2,0,0.3-0.1c0.1,0,0.2,0,0.4,0c0.2,0,0.3,0,0.4,0
		c0.1,0,0.2,0,0.2,0.1c0.1,0,0.1,0.1,0.1,0.1c0,0,0,0.1,0,0.1l-0.4,1.8c0.2-0.3,0.4-0.6,0.6-0.9c0.2-0.3,0.5-0.5,0.8-0.7
		c0.3-0.2,0.6-0.4,0.9-0.5c0.3-0.1,0.6-0.2,0.9-0.2c0.1,0,0.3,0,0.4,0s0.3,0,0.4,0.1c0.1,0,0.2,0.1,0.3,0.1c0.1,0,0.1,0.1,0.2,0.1
		C183.8,62.1,183.8,62.1,183.8,62.2z"/>
	<path class="st1" d="M193.7,62.1c0,0.1,0,0.2,0,0.3c0,0.1,0,0.2-0.1,0.2c-0.2,0.7-0.5,1.4-0.8,2.1c-0.3,0.7-0.6,1.5-1,2.3
		c-0.4,0.8-0.8,1.6-1.4,2.5c-0.5,0.9-1.1,1.8-1.8,2.7l-2.9,3.9c0,0.1-0.1,0.1-0.2,0.2c-0.1,0-0.1,0.1-0.2,0.1
		c-0.1,0-0.2,0.1-0.4,0.1c-0.1,0-0.3,0-0.5,0c-0.2,0-0.4,0-0.5,0c-0.1,0-0.2-0.1-0.3-0.1s-0.1-0.1-0.1-0.2c0-0.1,0.1-0.2,0.1-0.3
		l2.7-3.5l-1.7-9.8c0-0.1,0-0.2,0-0.2s0-0.1,0-0.2c0-0.1,0-0.2,0-0.2c0-0.1,0.1-0.1,0.2-0.1s0.2-0.1,0.3-0.1c0.1,0,0.3,0,0.5,0
		c0.2,0,0.4,0,0.5,0s0.2,0,0.3,0.1c0.1,0,0.1,0.1,0.1,0.1c0,0.1,0,0.1,0.1,0.2l1.3,8.2h0c0.5-0.6,0.9-1.3,1.2-2c0.4-0.7,0.7-1.3,1-2
		c0.3-0.7,0.6-1.4,0.9-2.1c0.3-0.7,0.5-1.4,0.7-2.1c0-0.1,0-0.1,0.1-0.2c0,0,0.1-0.1,0.2-0.1c0.1,0,0.2,0,0.3-0.1c0.1,0,0.3,0,0.5,0
		c0.3,0,0.6,0,0.7,0.1S193.7,62.1,193.7,62.1z"/>
	<path class="st1" d="M207.7,72.2c0,0.1-0.1,0.2-0.2,0.3c-0.1,0.1-0.4,0.1-0.7,0.1c-0.1,0-0.3,0-0.4,0c-0.1,0-0.2,0-0.2-0.1
		s-0.1-0.1-0.1-0.1c0,0,0-0.1,0-0.2l0.4-1.9c-0.1,0.2-0.3,0.5-0.5,0.8c-0.3,0.3-0.6,0.5-0.9,0.8c-0.3,0.2-0.7,0.4-1.2,0.6
		c-0.4,0.2-0.9,0.2-1.3,0.2c-0.6,0-1.1-0.1-1.5-0.3c-0.4-0.2-0.7-0.5-0.9-0.8c-0.2-0.3-0.4-0.7-0.5-1.2c-0.1-0.4-0.1-0.9-0.1-1.3
		c0-0.4,0-0.9,0.1-1.4c0.1-0.5,0.2-1.1,0.4-1.6c0.2-0.6,0.4-1.1,0.7-1.6c0.3-0.5,0.6-1,1-1.4c0.4-0.4,0.8-0.7,1.4-1
		c0.5-0.3,1.1-0.4,1.8-0.4s1.2,0.1,1.7,0.4s0.9,0.6,1.3,1.1l0.2-1c0-0.1,0.1-0.2,0.3-0.3c0.1-0.1,0.4-0.1,0.7-0.1c0.1,0,0.3,0,0.4,0
		c0.1,0,0.2,0,0.2,0.1c0.1,0,0.1,0.1,0.1,0.1c0,0,0,0.1,0,0.1L207.7,72.2z M207.4,64.8c-0.3-0.5-0.7-0.9-1.1-1.2s-0.9-0.4-1.4-0.4
		c-0.4,0-0.8,0.1-1.1,0.3c-0.3,0.2-0.6,0.4-0.9,0.7c-0.2,0.3-0.5,0.7-0.6,1.1s-0.3,0.8-0.4,1.2s-0.2,0.8-0.3,1.2s-0.1,0.8-0.1,1.1
		c0,0.3,0,0.5,0.1,0.8s0.1,0.5,0.2,0.7c0.1,0.2,0.3,0.4,0.5,0.5c0.2,0.1,0.5,0.2,0.8,0.2c0.4,0,0.8-0.1,1.2-0.3s0.8-0.5,1.2-0.9
		c0.4-0.4,0.7-0.9,0.9-1.4c0.3-0.5,0.5-1.1,0.6-1.8L207.4,64.8z"/>
	<path class="st1" d="M220.9,64.4c0,0.3,0,0.5,0,0.8c0,0.3-0.1,0.5-0.1,0.8l-1.3,6.3c0,0.1,0,0.1-0.1,0.2s-0.1,0.1-0.2,0.1
		s-0.2,0.1-0.3,0.1c-0.1,0-0.3,0-0.5,0c-0.2,0-0.3,0-0.4,0c-0.1,0-0.2,0-0.3-0.1s-0.1-0.1-0.1-0.1s0-0.1,0-0.2l1.2-6.2
		c0.1-0.2,0.1-0.5,0.1-0.7c0-0.2,0-0.4,0-0.6c0-0.5-0.1-0.8-0.3-1.1c-0.2-0.3-0.5-0.4-1-0.4c-0.4,0-0.8,0.1-1.2,0.3
		c-0.4,0.2-0.8,0.5-1.1,0.9s-0.7,0.9-0.9,1.4s-0.5,1.1-0.6,1.8l-0.9,4.5c0,0.1,0,0.1-0.1,0.2s-0.1,0.1-0.2,0.1s-0.2,0.1-0.3,0.1
		c-0.1,0-0.3,0-0.5,0c-0.2,0-0.3,0-0.5,0c-0.1,0-0.2,0-0.3-0.1s-0.1-0.1-0.1-0.1c0,0,0-0.1,0-0.2l2-10c0-0.1,0-0.1,0.1-0.1
		c0,0,0.1-0.1,0.2-0.1c0.1,0,0.2,0,0.3-0.1c0.1,0,0.2,0,0.4,0c0.2,0,0.3,0,0.4,0c0.1,0,0.2,0,0.2,0.1c0.1,0,0.1,0.1,0.1,0.1
		c0,0,0,0.1,0,0.1l-0.4,1.9c0.1-0.3,0.3-0.5,0.5-0.8c0.3-0.3,0.6-0.5,0.9-0.8c0.3-0.2,0.7-0.4,1.2-0.6c0.4-0.2,0.9-0.2,1.3-0.2
		c0.5,0,0.9,0.1,1.2,0.2s0.6,0.4,0.8,0.6c0.2,0.3,0.4,0.5,0.4,0.9C220.9,63.7,220.9,64.1,220.9,64.4z"/>
	<path class="st1" d="M231.2,72.2c0,0.1-0.1,0.2-0.2,0.3c-0.1,0.1-0.4,0.1-0.7,0.1c-0.2,0-0.3,0-0.4,0c-0.1,0-0.2,0-0.2-0.1
		c-0.1,0-0.1-0.1-0.1-0.1s0-0.1,0-0.2l0.4-1.9c-0.1,0.2-0.3,0.5-0.5,0.8c-0.3,0.3-0.6,0.5-0.9,0.8c-0.3,0.2-0.7,0.4-1.2,0.6
		s-0.9,0.2-1.3,0.2c-0.4,0-0.8-0.1-1.1-0.2c-0.3-0.1-0.6-0.3-0.8-0.5s-0.4-0.4-0.5-0.7s-0.2-0.5-0.3-0.8c-0.1-0.3-0.1-0.5-0.2-0.8
		c0-0.3,0-0.5,0-0.8c0-0.4,0-0.9,0.1-1.4c0.1-0.5,0.2-1.1,0.4-1.6c0.2-0.5,0.4-1.1,0.7-1.6c0.3-0.5,0.6-1,1-1.4s0.8-0.7,1.4-1
		c0.5-0.2,1.1-0.4,1.8-0.4c0.3,0,0.6,0,0.9,0.1c0.3,0.1,0.5,0.2,0.8,0.3c0.2,0.1,0.4,0.3,0.6,0.4c0.2,0.2,0.4,0.3,0.5,0.5l1.1-5.7
		c0-0.1,0-0.1,0.1-0.2c0,0,0.1-0.1,0.2-0.1c0.1,0,0.2,0,0.3-0.1c0.1,0,0.3,0,0.5,0c0.2,0,0.3,0,0.4,0c0.1,0,0.2,0,0.3,0.1
		c0.1,0,0.1,0.1,0.1,0.1c0,0,0,0.1,0,0.2L231.2,72.2z M230.8,64.9c-0.3-0.5-0.7-0.9-1.1-1.2c-0.4-0.3-0.9-0.4-1.4-0.4
		c-0.4,0-0.7,0.1-1.1,0.3s-0.6,0.4-0.9,0.7c-0.3,0.3-0.5,0.7-0.7,1c-0.2,0.4-0.3,0.8-0.5,1.2c-0.1,0.4-0.2,0.8-0.3,1.2
		c-0.1,0.4-0.1,0.8-0.1,1.1c0,0.7,0.1,1.3,0.4,1.7c0.2,0.4,0.6,0.6,1.2,0.6c0.4,0,0.8-0.1,1.2-0.3s0.8-0.5,1.2-0.9s0.7-0.9,0.9-1.4
		c0.3-0.5,0.5-1.1,0.6-1.8L230.8,64.9z"/>
	<path class="st1" d="M253.5,62.9c0,0.6-0.1,1.2-0.2,1.9c-0.1,0.7-0.3,1.4-0.5,2.2c-0.2,0.7-0.6,1.4-1,2.1c-0.4,0.7-0.9,1.3-1.5,1.8
		s-1.3,1-2.1,1.3c-0.8,0.3-1.8,0.5-2.8,0.5c-0.8,0-1.6-0.1-2.2-0.3c-0.6-0.2-1.2-0.5-1.6-0.9c-0.4-0.4-0.7-0.9-1-1.6
		c-0.2-0.6-0.3-1.3-0.3-2.1c0-0.6,0.1-1.3,0.2-2.1c0.1-0.7,0.3-1.5,0.6-2.2c0.3-0.7,0.6-1.4,1-2.1s0.9-1.3,1.5-1.8s1.3-0.9,2.1-1.2
		s1.7-0.5,2.8-0.5c0.8,0,1.6,0.1,2.2,0.3c0.6,0.2,1.2,0.5,1.6,1c0.4,0.4,0.7,1,1,1.6S253.5,62.1,253.5,62.9z M251.4,63.1
		c0-0.5-0.1-1-0.2-1.4c-0.1-0.4-0.3-0.8-0.6-1.1c-0.3-0.3-0.6-0.6-1-0.7c-0.4-0.2-1-0.3-1.6-0.3c-0.8,0-1.4,0.1-2,0.4
		s-1.1,0.7-1.5,1.1c-0.4,0.5-0.8,1-1.1,1.6c-0.3,0.6-0.5,1.2-0.7,1.8c-0.2,0.6-0.3,1.2-0.4,1.7s-0.1,1-0.1,1.4c0,0.5,0.1,1,0.2,1.4
		c0.1,0.4,0.3,0.8,0.6,1.1c0.3,0.3,0.6,0.5,1,0.7c0.4,0.2,0.9,0.3,1.6,0.3c0.8,0,1.4-0.1,2-0.4c0.6-0.3,1.1-0.6,1.5-1.1
		s0.8-1,1.1-1.5c0.3-0.6,0.5-1.2,0.7-1.7c0.2-0.6,0.3-1.2,0.4-1.7C251.4,64,251.4,63.5,251.4,63.1z"/>
	<path class="st1" d="M258.7,63.5l-1.9,9.5c-0.1,0.6-0.3,1.2-0.5,1.6c-0.2,0.5-0.5,0.8-0.8,1.1c-0.3,0.3-0.7,0.5-1.1,0.7
		c-0.4,0.1-0.9,0.2-1.4,0.2c-0.3,0-0.6,0-0.8-0.1c-0.2-0.1-0.3-0.1-0.4-0.1c0,0-0.1-0.1-0.1-0.1s0-0.1,0-0.2c0,0,0-0.1,0-0.2
		c0-0.1,0-0.1,0-0.2c0-0.1,0-0.2,0.1-0.2c0-0.1,0-0.2,0.1-0.2c0-0.1,0.1-0.1,0.1-0.2c0,0,0.1-0.1,0.1-0.1s0.1,0,0.2,0
		c0,0,0.1,0,0.2,0s0.1,0,0.2,0c0.1,0,0.2,0,0.3,0c0.3,0,0.6,0,0.8-0.1c0.2-0.1,0.4-0.2,0.6-0.4c0.2-0.2,0.3-0.5,0.4-0.8
		c0.1-0.3,0.2-0.7,0.3-1.1l1.8-9.1h-1.4c-0.1,0-0.1,0-0.2-0.1c0,0-0.1-0.1-0.1-0.3c0-0.1,0-0.1,0-0.2c0-0.1,0-0.2,0-0.3
		c0-0.1,0-0.2,0.1-0.3c0-0.1,0.1-0.2,0.1-0.2c0-0.1,0.1-0.1,0.1-0.2c0,0,0.1-0.1,0.2-0.1h1.4l0.3-1.2c0.1-0.6,0.3-1.2,0.5-1.6
		c0.2-0.5,0.5-0.8,0.8-1.1s0.7-0.5,1.1-0.7c0.4-0.1,0.9-0.2,1.4-0.2c0.2,0,0.3,0,0.5,0c0.2,0,0.3,0,0.5,0.1s0.3,0.1,0.4,0.1
		c0.1,0,0.2,0.1,0.2,0.1c0,0,0.1,0.1,0.1,0.2s0,0.1,0,0.2c0,0,0,0.1,0,0.1s0,0.1,0,0.2c0,0.1,0,0.2-0.1,0.3c0,0.1,0,0.2-0.1,0.2
		c0,0.1-0.1,0.1-0.1,0.2c0,0-0.1,0.1-0.1,0.1c-0.1,0-0.1,0-0.2,0s-0.2-0.1-0.3-0.1c-0.1,0-0.2-0.1-0.4-0.1c-0.1,0-0.3,0-0.5,0
		c-0.3,0-0.6,0-0.8,0.1c-0.2,0.1-0.4,0.2-0.6,0.5c-0.2,0.2-0.3,0.5-0.4,0.8c-0.1,0.3-0.2,0.7-0.3,1.1l-0.2,0.9h4.5l0.3-1.4
		c0.1-0.6,0.3-1.2,0.5-1.6s0.5-0.8,0.8-1.1c0.3-0.3,0.7-0.5,1.1-0.7s0.9-0.2,1.4-0.2c0.2,0,0.3,0,0.5,0c0.2,0,0.3,0,0.4,0.1
		c0.1,0,0.2,0.1,0.3,0.1s0.2,0.1,0.2,0.1c0,0,0.1,0.1,0.1,0.1c0,0.1,0,0.1,0,0.2c0,0,0,0.1,0,0.1c0,0.1,0,0.1,0,0.2s0,0.2,0,0.2
		c0,0.1,0,0.2-0.1,0.2c0,0.1-0.1,0.1-0.1,0.2c0,0-0.1,0.1-0.1,0.1c-0.1,0-0.1,0-0.2,0c-0.1,0-0.2,0-0.2-0.1c-0.1,0-0.2-0.1-0.3-0.1
		c-0.1,0-0.3,0-0.4,0c-0.3,0-0.6,0-0.8,0.1c-0.2,0.1-0.4,0.2-0.6,0.5c-0.2,0.2-0.3,0.5-0.4,0.8c-0.1,0.3-0.2,0.7-0.3,1.1l-0.2,1h5.8
		c0.2,0,0.3,0.1,0.4,0.2s0.1,0.2,0.1,0.4l-1.9,9.7c0,0.1-0.1,0.1-0.1,0.2s-0.1,0.1-0.2,0.1s-0.2,0.1-0.3,0.1c-0.1,0-0.3,0-0.5,0
		c-0.2,0-0.3,0-0.5,0c-0.1,0-0.2,0-0.3-0.1s-0.1-0.1-0.1-0.1s0-0.1,0-0.2l1.7-8.8h-4.5l-1.8,9.1c-0.1,0.7-0.3,1.3-0.5,1.8
		c-0.2,0.5-0.5,0.9-0.8,1.2s-0.7,0.6-1.1,0.7c-0.4,0.1-0.9,0.2-1.4,0.2c-0.4,0-0.7,0-1-0.1c-0.3-0.1-0.5-0.1-0.5-0.2
		c-0.1-0.1-0.1-0.2-0.1-0.3c0,0,0-0.1,0-0.2c0-0.1,0-0.1,0-0.2c0-0.1,0-0.2,0.1-0.3c0-0.1,0-0.2,0.1-0.2s0.1-0.1,0.1-0.2
		s0.1-0.1,0.1-0.1c0.1,0,0.1,0,0.2,0c0.1,0,0.2,0,0.2,0.1c0.1,0,0.2,0.1,0.3,0.1c0.1,0,0.3,0,0.4,0c0.3,0,0.6,0,0.8-0.1
		s0.4-0.2,0.6-0.4c0.2-0.2,0.3-0.4,0.4-0.7s0.2-0.7,0.3-1.1l1.8-9.1H258.7z M272.6,58.8c0,0.2-0.1,0.4-0.2,0.5
		c-0.1,0.1-0.1,0.3-0.3,0.3c-0.1,0.1-0.2,0.1-0.4,0.2c-0.2,0-0.3,0.1-0.6,0.1s-0.4,0-0.5-0.1c-0.1,0-0.2-0.1-0.3-0.2
		c-0.1-0.1-0.1-0.2-0.1-0.3s0-0.3,0-0.5c0-0.2,0.1-0.4,0.2-0.5c0.1-0.1,0.1-0.3,0.2-0.3c0.1-0.1,0.2-0.2,0.4-0.2
		c0.2,0,0.3-0.1,0.6-0.1c0.2,0,0.4,0,0.5,0.1s0.2,0.1,0.3,0.2c0.1,0.1,0.1,0.2,0.1,0.3C272.6,58.5,272.6,58.6,272.6,58.8z"/>
	<path class="st1" d="M281.8,63.1c0,0.1,0,0.3,0,0.4c0,0.1-0.1,0.3-0.1,0.4c-0.1,0.1-0.1,0.2-0.2,0.3c-0.1,0.1-0.2,0.1-0.2,0.1
		c-0.1,0-0.2-0.1-0.3-0.2s-0.3-0.2-0.4-0.4c-0.2-0.1-0.4-0.3-0.7-0.4s-0.6-0.2-1.1-0.2c-0.5,0-0.9,0.1-1.3,0.3
		c-0.4,0.2-0.7,0.5-1,0.8c-0.3,0.3-0.5,0.7-0.7,1.1c-0.2,0.4-0.3,0.8-0.4,1.2s-0.2,0.8-0.2,1.2c0,0.4-0.1,0.7-0.1,1
		c0,0.8,0.2,1.3,0.5,1.7c0.3,0.4,0.8,0.6,1.5,0.6c0.5,0,0.9-0.1,1.2-0.2c0.3-0.1,0.6-0.3,0.9-0.4c0.2-0.2,0.4-0.3,0.6-0.4
		c0.2-0.1,0.3-0.2,0.4-0.2c0.1,0,0.1,0,0.1,0.1c0,0.1,0.1,0.1,0.1,0.2c0,0.1,0,0.2,0,0.3s0,0.2-0.1,0.4c0,0.1-0.1,0.3-0.1,0.4
		c0,0.1-0.1,0.2-0.2,0.3c-0.1,0.1-0.2,0.2-0.5,0.3c-0.2,0.1-0.5,0.3-0.8,0.4s-0.6,0.2-1,0.3s-0.7,0.1-1.1,0.1
		c-1.2,0-2.1-0.3-2.7-0.9c-0.6-0.6-0.9-1.5-0.9-2.7c0-0.5,0-0.9,0.1-1.5c0.1-0.5,0.2-1.1,0.4-1.6s0.4-1.1,0.7-1.6
		c0.3-0.5,0.6-1,1.1-1.4c0.4-0.4,0.9-0.7,1.5-1s1.2-0.4,1.9-0.4c0.3,0,0.6,0,0.9,0.1c0.3,0,0.5,0.1,0.8,0.2s0.5,0.2,0.7,0.3
		c0.2,0.1,0.3,0.2,0.5,0.3c0.1,0.1,0.2,0.2,0.2,0.2C281.8,62.9,281.8,63,281.8,63.1z"/>
	<path class="st1" d="M292,64.3c0,0.5-0.1,1-0.4,1.4c-0.2,0.4-0.6,0.8-1.1,1s-1.2,0.5-1.9,0.7s-1.7,0.2-2.8,0.2h-1.2
		c-0.1,0.2-0.1,0.5-0.1,0.7s0,0.4,0,0.6c0,0.7,0.2,1.3,0.6,1.7c0.4,0.4,1,0.6,1.8,0.6c0.5,0,0.9,0,1.3-0.1c0.4-0.1,0.7-0.1,1-0.2
		s0.5-0.2,0.7-0.2c0.2-0.1,0.3-0.1,0.4-0.1c0.1,0,0.1,0,0.2,0.1s0,0.1,0,0.2c0,0.1,0,0.2,0,0.3s0,0.2-0.1,0.3c0,0.1-0.1,0.2-0.1,0.3
		c0,0.1-0.1,0.2-0.2,0.2c-0.1,0.1-0.2,0.2-0.5,0.3s-0.5,0.2-0.8,0.2c-0.3,0.1-0.7,0.1-1,0.2c-0.4,0-0.7,0.1-1.1,0.1
		c-0.7,0-1.2-0.1-1.7-0.2c-0.5-0.1-0.9-0.4-1.2-0.7c-0.3-0.3-0.6-0.7-0.7-1.2c-0.2-0.5-0.2-1-0.2-1.6c0-0.5,0-1,0.1-1.6
		s0.2-1.1,0.4-1.6c0.2-0.5,0.5-1.1,0.8-1.6c0.3-0.5,0.7-0.9,1.1-1.3s1-0.7,1.5-0.9c0.6-0.2,1.2-0.3,2-0.3c0.6,0,1.2,0.1,1.6,0.2
		c0.4,0.2,0.8,0.4,1.1,0.6c0.3,0.2,0.5,0.5,0.6,0.8C291.9,63.7,292,64,292,64.3z M290.1,64.4c0-0.4-0.1-0.7-0.4-0.9
		c-0.3-0.2-0.7-0.3-1.3-0.3c-0.5,0-0.9,0.1-1.3,0.3c-0.4,0.2-0.7,0.4-1,0.7c-0.3,0.3-0.5,0.6-0.7,1s-0.4,0.8-0.5,1.2h1.1
		c0.8,0,1.4,0,2-0.1c0.5-0.1,0.9-0.2,1.3-0.4c0.3-0.2,0.5-0.4,0.7-0.6S290.1,64.7,290.1,64.4z"/>
	<path class="st1" d="M306,62.8c0,0.1,0,0.2,0,0.3c0,0.1-0.1,0.2-0.1,0.4s-0.1,0.2-0.1,0.3s-0.1,0.1-0.2,0.1c-0.1,0-0.2,0-0.3-0.1
		c-0.1-0.1-0.3-0.2-0.5-0.2c-0.2-0.1-0.4-0.2-0.6-0.2c-0.2-0.1-0.5-0.1-0.9-0.1c-0.3,0-0.6,0-0.9,0.1c-0.3,0.1-0.5,0.2-0.6,0.4
		c-0.2,0.2-0.3,0.3-0.4,0.5c-0.1,0.2-0.1,0.4-0.1,0.6c0,0.3,0.1,0.5,0.3,0.7c0.2,0.2,0.4,0.4,0.7,0.5c0.3,0.2,0.6,0.3,1,0.5
		c0.3,0.2,0.7,0.3,1,0.6s0.5,0.5,0.7,0.8c0.2,0.3,0.3,0.7,0.3,1.2c0,0.5-0.1,1-0.3,1.5s-0.5,0.8-0.9,1.2c-0.4,0.3-0.8,0.6-1.4,0.8
		c-0.5,0.2-1.1,0.3-1.8,0.3c-0.3,0-0.7,0-1-0.1c-0.3-0.1-0.6-0.1-0.8-0.2c-0.2-0.1-0.5-0.2-0.6-0.3c-0.2-0.1-0.3-0.2-0.4-0.3
		c-0.1-0.1-0.1-0.1-0.1-0.2c0-0.1,0-0.1,0-0.2c0-0.1,0-0.1,0-0.2c0-0.1,0-0.2,0-0.3c0-0.1,0-0.2,0.1-0.3c0-0.1,0.1-0.2,0.1-0.2
		s0.1-0.1,0.1-0.2s0.1-0.1,0.1-0.1c0.1,0,0.2,0.1,0.3,0.2s0.3,0.2,0.5,0.3s0.5,0.2,0.8,0.3c0.3,0.1,0.7,0.2,1.1,0.2
		c0.4,0,0.8-0.1,1.1-0.2c0.3-0.1,0.5-0.2,0.7-0.4c0.2-0.2,0.3-0.4,0.4-0.6s0.1-0.5,0.1-0.7c0-0.3-0.1-0.6-0.3-0.8
		c-0.2-0.2-0.4-0.4-0.7-0.5c-0.3-0.2-0.6-0.3-1-0.5c-0.3-0.2-0.7-0.3-1-0.6s-0.5-0.5-0.7-0.8c-0.2-0.3-0.3-0.7-0.3-1.2
		c0-0.5,0.1-0.9,0.3-1.4c0.2-0.4,0.5-0.8,0.8-1.1c0.4-0.3,0.8-0.5,1.3-0.7c0.5-0.2,1-0.3,1.6-0.3c0.3,0,0.6,0,0.8,0.1
		c0.3,0,0.5,0.1,0.7,0.2c0.2,0.1,0.4,0.1,0.6,0.2c0.2,0.1,0.3,0.2,0.4,0.2C306,62.5,306,62.6,306,62.8z"/>
	<path class="st1" d="M315.6,72.2c0,0.1,0,0.1-0.1,0.2s-0.1,0.1-0.2,0.1c-0.1,0-0.2,0-0.3,0.1c-0.1,0-0.2,0-0.4,0
		c-0.1,0-0.3,0-0.4,0c-0.1,0-0.2,0-0.2-0.1s-0.1-0.1-0.1-0.1c0,0,0-0.1,0-0.2l0.4-1.9c-0.1,0.3-0.3,0.5-0.6,0.8
		c-0.3,0.3-0.6,0.5-0.9,0.8c-0.3,0.2-0.7,0.4-1.1,0.6s-0.8,0.2-1.3,0.2c-0.5,0-0.9-0.1-1.3-0.2c-0.3-0.1-0.6-0.3-0.8-0.6
		c-0.2-0.2-0.4-0.5-0.5-0.9s-0.1-0.7-0.1-1.1c0-0.2,0-0.5,0.1-0.8c0-0.3,0.1-0.5,0.1-0.8l1.2-6.3c0-0.1,0-0.1,0.1-0.1
		c0,0,0.1-0.1,0.2-0.1c0.1,0,0.2,0,0.3-0.1c0.1,0,0.3,0,0.5,0c0.2,0,0.3,0,0.4,0s0.2,0,0.3,0.1c0.1,0,0.1,0.1,0.1,0.1
		c0,0,0,0.1,0,0.1l-1.2,6.2c0,0.2-0.1,0.4-0.1,0.6c0,0.2,0,0.4,0,0.6c0,0.2,0,0.4,0.1,0.6c0,0.2,0.1,0.3,0.2,0.5
		c0.1,0.1,0.2,0.2,0.4,0.3c0.2,0.1,0.4,0.1,0.6,0.1c0.4,0,0.8-0.1,1.2-0.3s0.8-0.5,1.2-0.9c0.4-0.4,0.7-0.9,1-1.4s0.5-1.2,0.6-1.8
		l0.9-4.4c0-0.1,0-0.1,0.1-0.1c0,0,0.1-0.1,0.2-0.1c0.1,0,0.2,0,0.3-0.1c0.1,0,0.3,0,0.5,0s0.3,0,0.4,0s0.2,0,0.3,0.1
		c0.1,0,0.1,0.1,0.1,0.1c0,0,0,0.1,0,0.1L315.6,72.2z"/>
	<path class="st1" d="M329.2,65.3c0,0.4,0,0.9-0.1,1.5c-0.1,0.5-0.2,1.1-0.4,1.6c-0.2,0.6-0.4,1.1-0.7,1.6c-0.3,0.5-0.6,1-1,1.4
		c-0.4,0.4-0.8,0.7-1.4,1c-0.5,0.2-1.1,0.4-1.8,0.4c-0.3,0-0.6,0-0.9-0.1s-0.5-0.2-0.8-0.3c-0.2-0.1-0.4-0.3-0.6-0.4
		c-0.2-0.2-0.4-0.3-0.5-0.5l-0.9,4.8c0,0.1,0,0.1-0.1,0.2c0,0-0.1,0.1-0.2,0.1s-0.2,0.1-0.3,0.1c-0.1,0-0.3,0-0.5,0
		c-0.2,0-0.3,0-0.4,0c-0.1,0-0.2,0-0.3-0.1c-0.1,0-0.1-0.1-0.1-0.1c0,0,0-0.1,0-0.2l2.8-14c0-0.1,0.1-0.2,0.2-0.3
		c0.1-0.1,0.4-0.1,0.7-0.1c0.2,0,0.3,0,0.4,0c0.1,0,0.2,0,0.2,0.1c0.1,0,0.1,0.1,0.1,0.1s0,0.1,0,0.2l-0.4,1.9
		c0.1-0.2,0.3-0.5,0.5-0.8c0.2-0.3,0.5-0.5,0.9-0.8c0.3-0.2,0.7-0.4,1.2-0.6c0.4-0.2,0.9-0.2,1.3-0.2c0.6,0,1,0.1,1.4,0.3
		c0.4,0.2,0.7,0.5,0.9,0.8s0.4,0.7,0.5,1.1C329.1,64.4,329.2,64.8,329.2,65.3z M327.3,65.5c0-0.3,0-0.6-0.1-0.9
		c-0.1-0.3-0.1-0.5-0.3-0.7c-0.1-0.2-0.3-0.3-0.5-0.4c-0.2-0.1-0.4-0.2-0.7-0.2c-0.4,0-0.8,0.1-1.2,0.3s-0.8,0.5-1.2,0.9
		s-0.7,0.9-1,1.4s-0.5,1.1-0.6,1.8l-0.4,1.8c0.3,0.5,0.7,0.9,1.1,1.2c0.4,0.3,0.9,0.4,1.4,0.4c0.4,0,0.8-0.1,1.1-0.3
		c0.3-0.2,0.6-0.4,0.9-0.7c0.2-0.3,0.5-0.7,0.6-1.1c0.2-0.4,0.3-0.8,0.5-1.2c0.1-0.4,0.2-0.8,0.3-1.3S327.3,65.8,327.3,65.5z"/>
	<path class="st1" d="M340.9,65.3c0,0.4,0,0.9-0.1,1.5c-0.1,0.5-0.2,1.1-0.4,1.6c-0.2,0.6-0.4,1.1-0.7,1.6c-0.3,0.5-0.6,1-1,1.4
		c-0.4,0.4-0.8,0.7-1.4,1c-0.5,0.2-1.1,0.4-1.8,0.4c-0.3,0-0.6,0-0.9-0.1s-0.5-0.2-0.8-0.3c-0.2-0.1-0.4-0.3-0.6-0.4
		c-0.2-0.2-0.4-0.3-0.5-0.5l-0.9,4.8c0,0.1,0,0.1-0.1,0.2c0,0-0.1,0.1-0.2,0.1s-0.2,0.1-0.3,0.1c-0.1,0-0.3,0-0.5,0
		c-0.2,0-0.3,0-0.4,0c-0.1,0-0.2,0-0.3-0.1c-0.1,0-0.1-0.1-0.1-0.1c0,0,0-0.1,0-0.2l2.8-14c0-0.1,0.1-0.2,0.2-0.3
		c0.1-0.1,0.4-0.1,0.7-0.1c0.2,0,0.3,0,0.4,0c0.1,0,0.2,0,0.2,0.1c0.1,0,0.1,0.1,0.1,0.1s0,0.1,0,0.2l-0.4,1.9
		c0.1-0.2,0.3-0.5,0.5-0.8c0.2-0.3,0.5-0.5,0.9-0.8c0.3-0.2,0.7-0.4,1.2-0.6c0.4-0.2,0.9-0.2,1.3-0.2c0.6,0,1,0.1,1.4,0.3
		c0.4,0.2,0.7,0.5,0.9,0.8s0.4,0.7,0.5,1.1C340.9,64.4,340.9,64.8,340.9,65.3z M339,65.5c0-0.3,0-0.6-0.1-0.9
		c-0.1-0.3-0.1-0.5-0.3-0.7c-0.1-0.2-0.3-0.3-0.5-0.4c-0.2-0.1-0.4-0.2-0.7-0.2c-0.4,0-0.8,0.1-1.2,0.3s-0.8,0.5-1.2,0.9
		s-0.7,0.9-1,1.4s-0.5,1.1-0.6,1.8l-0.4,1.8c0.3,0.5,0.7,0.9,1.1,1.2c0.4,0.3,0.9,0.4,1.4,0.4c0.4,0,0.8-0.1,1.1-0.3
		c0.3-0.2,0.6-0.4,0.9-0.7c0.2-0.3,0.5-0.7,0.6-1.1c0.2-0.4,0.3-0.8,0.5-1.2c0.1-0.4,0.2-0.8,0.3-1.3S339,65.8,339,65.5z"/>
	<path class="st1" d="M344.3,72.2c0,0.1,0,0.1-0.1,0.2s-0.1,0.1-0.2,0.1s-0.2,0.1-0.3,0.1c-0.1,0-0.3,0-0.5,0c-0.2,0-0.3,0-0.5,0
		c-0.1,0-0.2,0-0.3-0.1c-0.1,0-0.1-0.1-0.1-0.1s0-0.1,0-0.2l3-14.9c0-0.1,0-0.1,0.1-0.2c0,0,0.1-0.1,0.2-0.1c0.1,0,0.2-0.1,0.3-0.1
		c0.1,0,0.3,0,0.5,0c0.2,0,0.3,0,0.4,0c0.1,0,0.2,0,0.3,0.1c0.1,0,0.1,0.1,0.1,0.1s0,0.1,0,0.2L344.3,72.2z"/>
	<path class="st1" d="M349.6,72.2c0,0.1,0,0.1-0.1,0.2s-0.1,0.1-0.2,0.1s-0.2,0.1-0.3,0.1c-0.1,0-0.3,0-0.5,0c-0.2,0-0.3,0-0.5,0
		c-0.1,0-0.2,0-0.3-0.1c-0.1,0-0.1-0.1-0.1-0.1s0-0.1,0-0.2l2-10c0-0.1,0-0.1,0.1-0.1s0.1-0.1,0.2-0.1s0.2-0.1,0.3-0.1s0.3,0,0.5,0
		c0.2,0,0.3,0,0.4,0c0.1,0,0.2,0,0.3,0.1c0.1,0,0.1,0.1,0.1,0.1s0,0.1,0,0.1L349.6,72.2z M352.5,58.8c0,0.2-0.1,0.4-0.2,0.5
		c-0.1,0.1-0.1,0.3-0.3,0.3c-0.1,0.1-0.2,0.1-0.4,0.2c-0.2,0-0.3,0.1-0.6,0.1c-0.2,0-0.4,0-0.5-0.1c-0.1,0-0.2-0.1-0.3-0.2
		c-0.1-0.1-0.1-0.2-0.1-0.3c0-0.1,0-0.3,0-0.5c0-0.2,0.1-0.4,0.2-0.5c0.1-0.1,0.2-0.3,0.3-0.3c0.1-0.1,0.2-0.2,0.4-0.2
		c0.2,0,0.3-0.1,0.6-0.1c0.2,0,0.4,0,0.5,0.1c0.1,0,0.2,0.1,0.3,0.2c0.1,0.1,0.1,0.2,0.1,0.3C352.5,58.5,352.5,58.6,352.5,58.8z"/>
	<path class="st1" d="M362.5,64.3c0,0.5-0.1,1-0.4,1.4c-0.2,0.4-0.6,0.8-1.1,1s-1.2,0.5-1.9,0.7s-1.7,0.2-2.8,0.2h-1.2
		c-0.1,0.2-0.1,0.5-0.1,0.7s0,0.4,0,0.6c0,0.7,0.2,1.3,0.6,1.7c0.4,0.4,1,0.6,1.8,0.6c0.5,0,0.9,0,1.3-0.1c0.4-0.1,0.7-0.1,1-0.2
		s0.5-0.2,0.7-0.2c0.2-0.1,0.3-0.1,0.4-0.1c0.1,0,0.1,0,0.2,0.1s0,0.1,0,0.2c0,0.1,0,0.2,0,0.3s0,0.2-0.1,0.3c0,0.1-0.1,0.2-0.1,0.3
		c0,0.1-0.1,0.2-0.2,0.2c-0.1,0.1-0.2,0.2-0.5,0.3s-0.5,0.2-0.8,0.2c-0.3,0.1-0.7,0.1-1,0.2c-0.4,0-0.7,0.1-1.1,0.1
		c-0.7,0-1.2-0.1-1.7-0.2c-0.5-0.1-0.9-0.4-1.2-0.7c-0.3-0.3-0.6-0.7-0.7-1.2c-0.2-0.5-0.2-1-0.2-1.6c0-0.5,0-1,0.1-1.6
		s0.2-1.1,0.4-1.6c0.2-0.5,0.5-1.1,0.8-1.6c0.3-0.5,0.7-0.9,1.1-1.3s1-0.7,1.5-0.9c0.6-0.2,1.2-0.3,2-0.3c0.6,0,1.2,0.1,1.6,0.2
		c0.4,0.2,0.8,0.4,1.1,0.6c0.3,0.2,0.5,0.5,0.6,0.8C362.5,63.7,362.5,64,362.5,64.3z M360.7,64.4c0-0.4-0.1-0.7-0.4-0.9
		c-0.3-0.2-0.7-0.3-1.3-0.3c-0.5,0-0.9,0.1-1.3,0.3c-0.4,0.2-0.7,0.4-1,0.7c-0.3,0.3-0.5,0.6-0.7,1s-0.4,0.8-0.5,1.2h1.1
		c0.8,0,1.4,0,2-0.1c0.5-0.1,0.9-0.2,1.3-0.4c0.3-0.2,0.5-0.4,0.7-0.6S360.7,64.7,360.7,64.4z"/>
	<path class="st1" d="M371.5,62.8c0,0.1,0,0.2,0,0.3c0,0.1-0.1,0.2-0.1,0.4s-0.1,0.2-0.1,0.3s-0.1,0.1-0.2,0.1c-0.1,0-0.2,0-0.3-0.1
		c-0.1-0.1-0.3-0.2-0.5-0.2c-0.2-0.1-0.4-0.2-0.6-0.2c-0.2-0.1-0.5-0.1-0.9-0.1c-0.3,0-0.6,0-0.9,0.1c-0.3,0.1-0.5,0.2-0.6,0.4
		c-0.2,0.2-0.3,0.3-0.4,0.5c-0.1,0.2-0.1,0.4-0.1,0.6c0,0.3,0.1,0.5,0.3,0.7c0.2,0.2,0.4,0.4,0.7,0.5c0.3,0.2,0.6,0.3,1,0.5
		c0.3,0.2,0.7,0.3,1,0.6s0.5,0.5,0.7,0.8c0.2,0.3,0.3,0.7,0.3,1.2c0,0.5-0.1,1-0.3,1.5s-0.5,0.8-0.9,1.2c-0.4,0.3-0.8,0.6-1.4,0.8
		c-0.5,0.2-1.1,0.3-1.8,0.3c-0.3,0-0.7,0-1-0.1c-0.3-0.1-0.6-0.1-0.8-0.2c-0.2-0.1-0.5-0.2-0.6-0.3c-0.2-0.1-0.3-0.2-0.4-0.3
		c-0.1-0.1-0.1-0.1-0.1-0.2c0-0.1,0-0.1,0-0.2c0-0.1,0-0.1,0-0.2c0-0.1,0-0.2,0-0.3c0-0.1,0-0.2,0.1-0.3c0-0.1,0.1-0.2,0.1-0.2
		s0.1-0.1,0.1-0.2s0.1-0.1,0.1-0.1c0.1,0,0.2,0.1,0.3,0.2s0.3,0.2,0.5,0.3s0.5,0.2,0.8,0.3c0.3,0.1,0.7,0.2,1.1,0.2
		c0.4,0,0.8-0.1,1.1-0.2c0.3-0.1,0.5-0.2,0.7-0.4c0.2-0.2,0.3-0.4,0.4-0.6s0.1-0.5,0.1-0.7c0-0.3-0.1-0.6-0.3-0.8
		c-0.2-0.2-0.4-0.4-0.7-0.5c-0.3-0.2-0.6-0.3-1-0.5c-0.3-0.2-0.7-0.3-1-0.6s-0.5-0.5-0.7-0.8c-0.2-0.3-0.3-0.7-0.3-1.2
		c0-0.5,0.1-0.9,0.3-1.4c0.2-0.4,0.5-0.8,0.8-1.1c0.4-0.3,0.8-0.5,1.3-0.7c0.5-0.2,1-0.3,1.6-0.3c0.3,0,0.6,0,0.8,0.1
		c0.3,0,0.5,0.1,0.7,0.2c0.2,0.1,0.4,0.1,0.6,0.2c0.2,0.1,0.3,0.2,0.4,0.2C371.4,62.5,371.5,62.6,371.5,62.8z"/>
	<path class="st1" d="M375.3,70.8c0,0.1,0,0.2,0,0.4c0,0.1,0,0.3-0.1,0.4s-0.1,0.3-0.1,0.4s-0.1,0.2-0.2,0.3
		c-0.1,0.1-0.2,0.2-0.4,0.2c-0.2,0-0.4,0.1-0.6,0.1c-0.2,0-0.4,0-0.5,0c-0.1,0-0.2-0.1-0.3-0.2s-0.1-0.2-0.2-0.3c0-0.1,0-0.2,0-0.3
		c0-0.1,0-0.3,0-0.4c0-0.1,0-0.3,0.1-0.4c0-0.1,0.1-0.3,0.1-0.4s0.1-0.2,0.2-0.3c0.1-0.1,0.2-0.2,0.4-0.2c0.2,0,0.4-0.1,0.7-0.1
		c0.2,0,0.4,0,0.5,0.1s0.2,0.1,0.3,0.2s0.1,0.2,0.2,0.3C375.3,70.6,375.3,70.7,375.3,70.8z"/>
	<path class="st1" d="M381.1,70.8c0,0.1,0,0.2,0,0.4c0,0.1,0,0.3-0.1,0.4s-0.1,0.3-0.1,0.4s-0.1,0.2-0.2,0.3
		c-0.1,0.1-0.2,0.2-0.4,0.2c-0.2,0-0.4,0.1-0.6,0.1c-0.2,0-0.4,0-0.5,0c-0.1,0-0.2-0.1-0.3-0.2s-0.1-0.2-0.2-0.3c0-0.1,0-0.2,0-0.3
		c0-0.1,0-0.3,0-0.4c0-0.1,0-0.3,0.1-0.4c0-0.1,0.1-0.3,0.1-0.4s0.1-0.2,0.2-0.3c0.1-0.1,0.2-0.2,0.4-0.2c0.2,0,0.4-0.1,0.7-0.1
		c0.2,0,0.4,0,0.5,0.1s0.2,0.1,0.3,0.2s0.1,0.2,0.2,0.3C381.1,70.6,381.1,70.7,381.1,70.8z"/>
	<path class="st1" d="M386.8,70.8c0,0.1,0,0.2,0,0.4c0,0.1,0,0.3-0.1,0.4s-0.1,0.3-0.1,0.4s-0.1,0.2-0.2,0.3
		c-0.1,0.1-0.2,0.2-0.4,0.2c-0.2,0-0.4,0.1-0.6,0.1c-0.2,0-0.4,0-0.5,0c-0.1,0-0.2-0.1-0.3-0.2s-0.1-0.2-0.2-0.3c0-0.1,0-0.2,0-0.3
		c0-0.1,0-0.3,0-0.4c0-0.1,0-0.3,0.1-0.4c0-0.1,0.1-0.3,0.1-0.4s0.1-0.2,0.2-0.3c0.1-0.1,0.2-0.2,0.4-0.2c0.2,0,0.4-0.1,0.7-0.1
		c0.2,0,0.4,0,0.5,0.1s0.2,0.1,0.3,0.2s0.1,0.2,0.2,0.3C386.8,70.6,386.8,70.7,386.8,70.8z"/>
</g>
<g>
	<path class="st2" d="M16,40.8h10.2c4,0,7.4-0.6,10.2-1.9c4-1.7,6-4.1,6-7.4V4.9c0-1.2-0.5-1.9-1.4-2.2c-0.7-0.2-1.7-0.3-2.8-0.3
		c-1.6,0-2.5,0.8-2.5,2.5v5.9H15.9C5.8,10.8,0.6,14,0.2,20.2C0.1,22.3,0,25,0,28.3c0,1.6,0,3,0.1,4C0.4,38,5.7,40.8,16,40.8z
		 M6.8,20.3c0-2.6,3-3.9,8.9-3.9h20v15c0,2.6-3.4,3.8-10.3,3.8h-9.6c-2.8,0-4.7-0.1-5.7-0.4C8,34.3,6.8,33,6.8,31.1V20.3z"/>
	<path class="st2" d="M93.3,40.6c0.3,0.1,1.2,0.2,2.8,0.2c1.6,0,2.5-0.8,2.5-2.5V4.9c0-1.2-0.4-2-1.3-2.3c-0.4-0.1-1.3-0.2-2.9-0.2
		s-2.5,0.8-2.5,2.5v33.5C91.9,39.5,92.4,40.2,93.3,40.6z"/>
	<path class="st2" d="M49.8,38.2c1.7,1.3,4.3,2.1,7.8,2.5c0.7,0.1,1.8,0.1,3.1,0.2c1.4,0,18.1,0,20.3,0c1.6,0,2.4-0.8,2.4-2.4
		c0-2-0.8-3-2.4-3c-2.1,0-18.8,0-20.1-0.1c-1.4-0.1-2.4-0.2-3.1-0.4c-3.2-0.8-4.9-2.6-4.9-5.3v-0.2h31.9c1.2,0,1.8-0.9,1.8-2.6v-7
		c0-2.9-1.5-5-4.6-6.4c-2.2-1.1-5-1.7-8.4-1.7h-12c-4.1,0-7.4,0.6-9.9,1.8c-3.7,1.6-5.5,4.1-5.5,7.5v10.7
		C46.2,34.2,47.4,36.3,49.8,38.2z M52.6,20.5c0-1.5,1.3-2.5,4.1-3c1.9-0.4,5.4-0.5,10.6-0.5c8.7,0,13.1,1.1,13.1,3.3v3.6H52.6V20.5z
		"/>
	<path class="st1" d="M261,38.5c1.7,1.3,4.3,2.1,7.8,2.5c0.7,0.1,1.7,0.1,3.1,0.2c1.4,0,18.1,0,20.3,0c1.6,0,2.4-0.8,2.4-2.4
		c0-2-0.8-3-2.4-3c-2.1,0-18.8,0-20.1-0.1c-1.4-0.1-2.4-0.2-3.1-0.4c-3.2-0.8-4.9-2.6-4.9-5.3v-0.2H296c1.2,0,1.8-0.9,1.8-2.6v-7
		c0-2.9-1.5-5-4.6-6.4c-2.2-1.1-5-1.7-8.4-1.7h-12c-4.1,0-7.4,0.6-9.9,1.8c-3.7,1.6-5.5,4.1-5.5,7.5V32
		C257.4,34.5,258.6,36.7,261,38.5z M263.8,20.9c0-1.5,1.3-2.5,4.1-3c1.9-0.4,5.4-0.5,10.6-0.5c8.7,0,13.1,1.1,13.1,3.3v3.6h-27.7
		v-3.4H263.8z"/>
	<path class="st1" d="M110.6,39.6c2.8,1.2,6.6,1.8,11.4,1.8h10.9c11.9,0,17.8-3.4,17.8-10.3V13.4c0-4.4-2-7.4-6.1-9
		c-2.3-1-6.2-1.5-11.7-1.5H122c-11.8,0-17.8,3.5-17.8,10.4V31C104.3,35.1,106.4,37.9,110.6,39.6z M111.3,13.6
		c0-3.2,3.6-4.9,10.7-4.9h11.1c7.1,0,10.6,1.6,10.6,4.9V31c0,3.1-3.5,4.7-10.6,4.7H122c-7.2,0-10.7-1.6-10.7-4.7V13.6z"/>
	<path class="st1" d="M156.9,41.2c0.3,0.1,1.2,0.2,2.9,0.2c1.6,0,2.5-0.8,2.5-2.5V17h10.2c1.6,0,2.5-1,2.5-3.1
		c0-1.6-0.8-2.5-2.5-2.5h-10.1c0-1.4,1.4-2.3,4.2-2.7c0.9-0.1,2.8-0.2,5.8-0.2c1.6,0,2.5-0.8,2.5-2.5c0-1.5-0.4-2.4-1.2-2.8
		c-0.4-0.2-1.5-0.3-3.2-0.3c-9.9,0-14.9,3-14.9,8.9v27C155.6,40.1,156,40.9,156.9,41.2z"/>
	<path class="st1" d="M179.3,41.2c0.3,0.1,1.2,0.2,2.9,0.2c1.6,0,2.5-0.8,2.5-2.5V17h10.2c1.6,0,2.5-1,2.5-3.1
		c0-1.6-0.8-2.5-2.5-2.5h-10.1c0-1.4,1.4-2.3,4.2-2.7c0.9-0.1,2.8-0.2,5.8-0.2c1.6,0,2.5-0.8,2.5-2.5c0-1.5-0.4-2.4-1.2-2.8
		c-0.4-0.2-1.5-0.3-3.2-0.3c-9.9,0-14.9,3-14.9,8.9v27C177.9,40.1,178.4,40.9,179.3,41.2z"/>
	<path class="st1" d="M220.7,40.3c2.1,0.9,5.5,1.4,10.2,1.4h20c2.1,0,4-0.8,4-2.5c0-2.1-1.8-3.1-3.4-3.1h-20.4
		c-6.1,0-9.1-1.3-9.1-3.8V20.4c0-2.2,2.7-3.4,8-3.4h21.3c1.7,0,3.5-0.9,3.5-2.8c0-1.9-1.8-2.8-3.5-2.8h-21.7
		c-9.5,0-14.2,3.1-14.2,9.2v11.9C215.3,36.2,217.1,38.8,220.7,40.3z"/>
	<g>
		<path class="st1" d="M208.3,11.8c-0.3-0.1-1.2-0.2-2.8-0.2c-1.7,0-2.5,0.8-2.5,2.5v25.4c0,1.2,0.4,2,1.3,2.3
			c0.3,0.1,1.2,0.2,2.8,0.2c1.7,0,2.5-0.8,2.5-2.5V14C209.6,12.8,209.2,12.1,208.3,11.8z"/>
		<path class="st2" d="M203.6,6c0.8,0.5,1.8,0.8,2.9,0.8c1.2,0,2.1-0.3,2.9-0.8c0.9-0.6,1.4-1.5,1.4-2.6s-0.5-2-1.4-2.6
			c-0.8-0.5-1.8-0.8-2.9-0.8c-1.2,0-2.1,0.3-2.9,0.8c-0.9,0.6-1.4,1.5-1.4,2.6C202.2,4.5,202.6,5.4,203.6,6z"/>
	</g>
</g>
</svg>
