<?xml version="1.0" encoding="utf-8"?>
<!-- Generator: Adobe Illustrator 22.0.1, SVG Export Plug-In . SVG Version: 6.00 Build 0)  -->
<svg version="1.1" id="Layer_1" xmlns="http://www.w3.org/2000/svg" xmlns:xlink="http://www.w3.org/1999/xlink" x="0px" y="0px"
	 viewBox="0 0 162.3 178.5" style="enable-background:new 0 0 162.3 178.5;" xml:space="preserve">
<g>
	<path d="M129.8,97.3c-32.5,0-64.9,0-97.3,0c0-0.3-0.1-0.7-0.1-1c0-4,0-8,0-12c0-0.5,0.1-1,0.4-1.5c4.2-8.1,10.5-14.2,18.4-18.7
		c7.7-4.5,16.1-6.6,25-7.2c9.9-0.6,19.5,0.4,28.7,4.2c10.2,4.2,18.3,10.9,23.9,20.5c0.7,1.2,1,2.4,1,3.8c-0.1,3.6,0,7.2,0,10.8
		C129.8,96.5,129.8,96.9,129.8,97.3z"/>
	<path d="M105.5,24.3c-0.2,14-10.8,24.6-24.5,24.4c-13.9-0.2-24.4-10.8-24.2-24.6C56.9,10.2,67.6-0.1,81.7,0
		C95,0.1,105.6,11,105.5,24.3z"/>
	<path d="M73,105.5c5.5,0,10.8,0,16.2,0c0,0.5,0,0.9,0,1.4c0,16.3,0,32.6,0,49c0,1,0.2,1.7,0.9,2.4c3.4,3.7,4.1,9,1.9,13.4
		c-2.4,4.7-7,7.2-12.3,6.7c-4.8-0.5-9-4-10.3-8.7c-1.2-4.4-0.2-8.3,2.9-11.7c0.5-0.6,0.7-1.1,0.7-1.8c0-16.4,0-32.8,0-49.2
		C73,106.5,73,106.1,73,105.5z"/>
	<path d="M54,105.5c-3,3.5-5.7,6.8-8.4,10.1c-6.9,8.3-13.8,16.5-20.7,24.8c-0.3,0.4-0.5,0.9-0.5,1.4c0.2,6.1-4.6,11.6-10.6,12.3
		c-6.4,0.7-12.3-3.4-13.5-9.6c-1.5-7.4,3.9-14.3,11.4-14.6c0.8,0,1.1-0.4,1.5-0.9c6.3-7.5,12.6-15.1,18.9-22.6
		c0.5-0.6,1-0.8,1.8-0.8c6.3,0,12.6,0,18.8,0C53,105.5,53.4,105.5,54,105.5z"/>
	<path d="M108.7,105.5c5.2,0,10.2,0,15.1,0c1.6,0,3.3,0,4.9,0c0.8,0,1.3,0.2,1.8,0.8c6,7.2,12.1,14.4,18.1,21.7
		c0.1,0.1,0.1,0.2,0.2,0.2c0.7,1.2,1.8,1.7,3.2,1.9c5.9,0.8,10.4,6.3,10.2,12.3c-0.2,6.1-4.9,11.2-10.7,11.8
		c-6.3,0.6-12-3.4-13.3-9.3c-0.2-0.9-0.4-1.9-0.3-2.8c0.1-1.1-0.3-1.8-1-2.6c-9.2-10.9-18.4-21.9-27.5-32.9
		C109.2,106.2,109.1,105.9,108.7,105.5z"/>
</g>
</svg>
