<?xml version="1.0" encoding="utf-8"?>
<!-- Generator: Adobe Illustrator 22.0.1, SVG Export Plug-In . SVG Version: 6.00 Build 0)  -->
<svg version="1.1" id="Layer_1" xmlns="http://www.w3.org/2000/svg" xmlns:xlink="http://www.w3.org/1999/xlink" x="0px" y="0px"
	 viewBox="0 0 157.5 171.7" style="enable-background:new 0 0 157.5 171.7;" xml:space="preserve">
<style type="text/css">
	.st0{fill:url(#SVGID_1_);}
	.st1{fill:url(#SVGID_2_);}
	.st2{fill:#EDC89F;}
	.st3{fill:#C9AA85;}
	.st4{fill:url(#SVGID_3_);}
	.st5{fill:#FFFFFF;}
	.st6{fill:url(#SVGID_4_);}
	.st7{fill:url(#SVGID_5_);}
	.st8{fill:url(#SVGID_6_);}
	.st9{fill:#F89724;}
	.st10{fill:url(#SVGID_7_);}
	.st11{fill:url(#SVGID_8_);}
	.st12{fill:url(#SVGID_9_);}
	.st13{fill:url(#SVGID_10_);}
</style>
<g>
	
		<radialGradient id="SVGID_1_" cx="78.8" cy="-60727.3672" r="80.0456" gradientTransform="matrix(1 0 0 -0.1255 0 -7511.3843)" gradientUnits="userSpaceOnUse">
		<stop  offset="0" style="stop-color:#80705C"/>
		<stop  offset="0.2446" style="stop-color:#AAA092"/>
		<stop  offset="0.489" style="stop-color:#CFC9C1"/>
		<stop  offset="0.7042" style="stop-color:#E9E6E3"/>
		<stop  offset="0.8819" style="stop-color:#F9F8F8"/>
		<stop  offset="1" style="stop-color:#FFFFFF"/>
	</radialGradient>
	<path class="st0" d="M157.5,109.9c0,5.2-35.3,9.5-78.7,9.5c-43.5,0-78.7-4.2-78.7-9.5c0-5.2,35.3-9.5,78.7-9.5
		C122.2,100.5,157.5,104.7,157.5,109.9z"/>
	
		<radialGradient id="SVGID_2_" cx="78.8" cy="-60727.3672" r="53.1678" gradientTransform="matrix(1 0 0 -0.1255 0 -7511.3843)" gradientUnits="userSpaceOnUse">
		<stop  offset="0" style="stop-color:#80705C"/>
		<stop  offset="0.2446" style="stop-color:#AAA092"/>
		<stop  offset="0.489" style="stop-color:#CFC9C1"/>
		<stop  offset="0.7042" style="stop-color:#E9E6E3"/>
		<stop  offset="0.8819" style="stop-color:#F9F8F8"/>
		<stop  offset="1" style="stop-color:#FFFFFF"/>
	</radialGradient>
	<path class="st1" d="M131.1,109.9c0,3.5-23.4,6.3-52.3,6.3s-52.3-2.8-52.3-6.3s23.4-6.3,52.3-6.3S131.1,106.4,131.1,109.9z"/>
	<g>
		<path class="st2" d="M85.3,78.6C70.2,76.4,65,68.7,65,68.7l20.9-8.2H69.3c-3.4,0-6.2,2.2-6.2,4.8v12.5c0,2.7,2.8,4.8,6.2,4.8h19.8
			c3.4,0,6.2-2.2,6.2-4.8v-0.3C92.9,78.7,89.7,79.2,85.3,78.6z"/>
		<path class="st3" d="M89.1,60.5h-3.2L63.3,66c0,0,2.8,10,22,12.7c4.4,0.6,7.6,0.1,9.9-1.1V65.4C95.3,62.7,92.5,60.5,89.1,60.5z"/>
		
			<radialGradient id="SVGID_3_" cx="80.4181" cy="2123.842" r="26.8018" gradientTransform="matrix(1 0 0 -1.2981 0 2791.855)" gradientUnits="userSpaceOnUse">
			<stop  offset="0" style="stop-color:#FFE2C2"/>
			<stop  offset="1" style="stop-color:#E6BE8C"/>
		</radialGradient>
		<path class="st4" d="M108.2,37.6c-0.8-0.2-1.7,0.3-2.5,1.3c0-0.5,0-1,0-1.4c0-15.6-11.9-28.2-26.6-28.2S52.5,21.9,52.5,37.5
			c0,0.5,0,1,0,1.4c-0.8-1-1.7-1.5-2.5-1.3c-1.9,0.5-2.4,4.9-1.3,9.7c1.2,4.9,3.6,8.4,5.5,7.9c0.7-0.2,1.2-0.9,1.5-1.9
			C60.4,65,69.1,75.5,79.2,75.5S98,64.9,102.5,53.3c0.3,1,0.8,1.7,1.5,1.9c1.9,0.5,4.3-3,5.5-7.9S110.1,38.1,108.2,37.6z"/>
		<path class="st5" d="M127.9,110.6H30.5l1.3-14.9c0-10.8,11.7-18.9,31.4-21.8l0.4-0.1l0.1,0.4c0.4,2.8,2.6,4.9,5.2,4.9h20.9
			c2.5,0,4.6-1.9,5.1-4.6l0.1-0.4l0.4,0.1c19.6,3.2,31.3,11.3,31.3,21.5L127.9,110.6z M31.4,109.7H127l-1.2-14
			c0-9.8-11.3-17.5-30.3-20.7c-0.7,2.8-3.1,4.8-5.9,4.8H68.8c-2.9,0-5.3-2.1-5.9-5.2c-19,2.9-30.3,10.7-30.3,21L31.4,109.7z"/>
		
			<linearGradient id="SVGID_4_" gradientUnits="userSpaceOnUse" x1="30.9" y1="80.2512" x2="127.4" y2="80.2512" gradientTransform="matrix(1 0 0 -1 0 172.5512)">
			<stop  offset="0" style="stop-color:#FDC00F"/>
			<stop  offset="1" style="stop-color:#FB971F"/>
		</linearGradient>
		<path class="st6" d="M126.9,103.8L126.9,103.8l-0.7-8.1c0-11.2-13.9-18.3-31-21.1c-0.5,2.8-2.8,4.9-5.5,4.9H68.8
			c-2.8,0-5.2-2.3-5.6-5.2C52.8,75.8,43.5,79,37.9,84c0,0,0,0-0.1,0.1c-0.8,0.7-1.5,1.4-2.1,2.2l-0.1,0.1c-0.3,0.3-0.5,0.7-0.8,1
			c0,0.1-0.1,0.1-0.1,0.2c-0.5,0.8-1,1.5-1.3,2.4c0,0.1-0.1,0.2-0.1,0.3c-0.1,0.3-0.3,0.7-0.4,1c0,0.1-0.1,0.1-0.1,0.2
			c-0.1,0.4-0.2,0.8-0.3,1.3c0,0.1,0,0.2-0.1,0.3c-0.1,0.3-0.1,0.7-0.2,1c0,0.1,0,0.2,0,0.4c0,0.4-0.1,0.9-0.1,1.4l-1.2,14.4h96.5
			L126.9,103.8z"/>
		<path d="M107.2,29.7c0-16.4-12.5-29.7-28-29.7S51.1,13.3,51.1,29.7c0,5.2,1.3,10.2,3.5,14.4c0.9-3.7,31.4-7.2,45-10.1
			c1.9,3,3.3,6.5,4.1,10.2C106,39.9,107.2,35,107.2,29.7z"/>
		<g>
			
				<radialGradient id="SVGID_5_" cx="131.1537" cy="122.191" r="26.6212" gradientTransform="matrix(1 0 0 -1 0 172.5512)" gradientUnits="userSpaceOnUse">
				<stop  offset="0.5928" style="stop-color:#FDC00F"/>
				<stop  offset="1" style="stop-color:#FB971F"/>
			</radialGradient>
			<path class="st7" d="M154.7,62.8l0.1-10l-5-0.5c-0.2-0.8-0.6-1.5-0.9-2.3l3.2-3.8l-7-7.1l-3.9,3.2c-0.7-0.4-1.5-0.7-2.2-1l-0.4-5
				l-5.2-0.1l-4.7-0.1l-0.5,5c-0.8,0.2-1.5,0.6-2.3,0.9l-3.8-3.2l-7.1,7l3.2,3.9c-0.4,0.7-0.7,1.5-1,2.2l-5,0.4l-0.1,10l5,0.5
				c0.2,0.8,0.6,1.5,0.9,2.3l-3.2,3.8l7,7.1l3.9-3.2c0.7,0.4,1.5,0.7,2.2,1l0.4,5l5.2,0.1l4.7,0.1l0.5-5c0.8-0.2,1.5-0.6,2.3-0.9
				l3.8,3.2l7.1-7l-3.2-3.9c0.4-0.7,0.7-1.5,1-2.2L154.7,62.8z M133.4,67.5h-0.1c-5.5-0.1-9.9-4.6-9.8-10.1s4.5-9.8,10-9.8h0.1
				c5.5,0.1,9.9,4.6,9.8,10.1C143.3,63.1,138.9,67.5,133.4,67.5z"/>
			
				<radialGradient id="SVGID_6_" cx="133.4389" cy="115.0512" r="11.854" gradientTransform="matrix(1 0 0 -1 0 172.5512)" gradientUnits="userSpaceOnUse">
				<stop  offset="0.8258" style="stop-color:#FB971F"/>
				<stop  offset="1" style="stop-color:#B05B00"/>
			</radialGradient>
			<path class="st8" d="M133.4,45.6c-6.5,0-11.9,5.3-11.9,11.9c0,6.5,5.3,11.9,11.9,11.9c6.5,0,11.9-5.3,11.9-11.9
				C145.3,50.9,140,45.6,133.4,45.6z M133.4,67.5h-0.1c-5.5-0.1-9.9-4.6-9.8-10.1s4.5-9.8,10-9.8h0.1c5.5,0.1,9.9,4.6,9.8,10.1
				C143.3,63.1,138.9,67.5,133.4,67.5z"/>
			<g>
				<path class="st9" d="M145.1,55.5c0,0,0.6,1.1,0.8,3c0.1,0.9,0.1,2-0.2,3.2c-0.1,0.6-0.3,1.2-0.6,1.8c-0.2,0.6-0.5,1.2-0.9,1.7
					s-0.8,1-1.2,1.5s-1,0.8-1.5,1.1c-1,0.6-2.1,1-3,1.2s-1.7,0.2-2.2,0.2s-0.8,0-0.8,0s0.3-0.1,0.8-0.3c0.5-0.2,1.2-0.4,2-0.7
					c0.8-0.3,1.7-0.8,2.6-1.4c0.8-0.6,1.6-1.4,2.2-2.4c0.6-0.9,1.1-2,1.4-3c0.3-1,0.5-2,0.5-2.9C145.3,56.7,145.1,55.5,145.1,55.5z"
					/>
			</g>
			<path class="st9" d="M121.6,57.9c0-0.1,0-0.3,0-0.4c0-6.1,4.6-11.1,10.5-11.8l0,0c0,0-0.3,0-0.8-0.1c-0.5,0-1.2,0-2.1,0.1
				c-0.9,0.1-1.9,0.4-2.9,1c-1,0.5-2,1.3-2.7,2.2c-0.8,0.9-1.3,2-1.7,3.1c-0.3,1.1-0.5,2.1-0.6,3s0,1.6,0.1,2.1
				c0,0.3,0.1,0.4,0.1,0.6C121.6,57.9,121.6,58,121.6,57.9L121.6,57.9z"/>
		</g>
	</g>
	<g>
		
			<linearGradient id="SVGID_7_" gradientUnits="userSpaceOnUse" x1="44.8" y1="49.9569" x2="44.8" y2="24.2481" gradientTransform="matrix(1 0 0 -1 0 172.5512)">
			<stop  offset="0.5928" style="stop-color:#FDC00F"/>
			<stop  offset="1" style="stop-color:#FB971F"/>
		</linearGradient>
		<path class="st10" d="M44.8,171.6c-2,0-3.7-0.4-4.9-1.1c-1.2-0.7-2.2-1.5-2.8-2.3c-1.6-2-2.5-4.9-2.5-8.7v-33.3h5.8v33.3
			c0,1.6,0.2,2.8,0.5,3.6c0.3,0.9,0.7,1.5,1.1,1.9c0.5,0.4,0.9,0.6,1.4,0.7c0.5,0.1,0.9,0.1,1.4,0.1c0.4,0,0.9,0,1.4-0.1
			s1-0.3,1.4-0.7c0.5-0.4,0.8-1,1.1-1.9s0.5-2.1,0.5-3.6v-33.3H55v33.3c0,3.8-0.8,6.7-2.5,8.7c-0.6,0.8-1.5,1.6-2.8,2.3
			C48.5,171.3,46.9,171.6,44.8,171.6z"/>
		
			<linearGradient id="SVGID_8_" gradientUnits="userSpaceOnUse" x1="70.35" y1="49.9569" x2="70.35" y2="24.2481" gradientTransform="matrix(1 0 0 -1 0 172.5512)">
			<stop  offset="0.5928" style="stop-color:#FDC00F"/>
			<stop  offset="1" style="stop-color:#FB971F"/>
		</linearGradient>
		<path class="st11" d="M70.4,171.6c-3.6,0-6.3-1.2-8.2-3.5c-1.8-2.2-2.6-5.3-2.6-9.3v-2.9h5.8v2.9c0,2.7,0.5,4.6,1.4,5.7
			c0.2,0.3,0.6,0.6,1.1,0.9c0.5,0.3,1.4,0.5,2.5,0.5s2-0.2,2.6-0.7c0.7-0.5,1.2-1,1.5-1.7s0.6-1.4,0.7-2.2s0.2-1.5,0.2-2.1
			c0-1.1-0.2-2-0.5-2.7s-0.8-1.4-1.3-1.9s-1.1-0.9-1.8-1.3c-0.7-0.3-1.3-0.7-2-1l-1.1-0.5c-0.7-0.3-1.5-0.7-2.5-1.2s-2-1.2-3-2.2
			c-2.5-2.4-3.7-5.4-3.7-9.1c0-1.9,0.3-3.7,0.8-5.3s1.2-3,2.2-4.1s2.1-2,3.4-2.6c1.3-0.6,2.8-1,4.4-1c2.2,0,4,0.4,5.3,1.2
			s2.3,1.6,2.9,2.4c1.8,2.3,2.6,5.4,2.6,9.4v2.9h-5.8v-2.9c0-1.8-0.2-3.1-0.5-4.1s-0.8-1.7-1.3-2.1c-0.5-0.4-1.1-0.7-1.7-0.8
			s-1.1-0.1-1.5-0.1c-1.2,0-2.1,0.3-2.8,0.9c-0.7,0.6-1.2,1.3-1.5,2.1s-0.6,1.6-0.6,2.4c-0.1,0.8-0.1,1.4-0.1,1.8
			c0,1.1,0.2,2,0.5,2.7c0.3,0.8,0.8,1.4,1.3,2s1.1,1,1.8,1.4c0.7,0.4,1.4,0.7,2.1,1l1,0.4c0.6,0.2,1.4,0.6,2.4,1.1s2,1.2,3,2.1
			c2.5,2.3,3.8,5.3,3.8,9c0,3.5-0.9,6.4-2.6,8.7C76.6,170.3,73.9,171.6,70.4,171.6z"/>
		
			<linearGradient id="SVGID_9_" gradientUnits="userSpaceOnUse" x1="93.4" y1="49.9569" x2="93.4" y2="24.248" gradientTransform="matrix(1 0 0 -1 0 172.5512)">
			<stop  offset="0.5928" style="stop-color:#FDC00F"/>
			<stop  offset="1" style="stop-color:#FB971F"/>
		</linearGradient>
		<path class="st12" d="M89.8,132.2v14h13v5.8h-13v14h13v5.8H84v-45.3h18.7v5.8H89.8V132.2z"/>
		
			<linearGradient id="SVGID_10_" gradientUnits="userSpaceOnUse" x1="117.35" y1="49.9569" x2="117.35" y2="24.2481" gradientTransform="matrix(1 0 0 -1 0 172.5512)">
			<stop  offset="0.5928" style="stop-color:#FDC00F"/>
			<stop  offset="1" style="stop-color:#FB971F"/>
		</linearGradient>
		<path class="st13" d="M124.4,149.4c1.1,1.1,2,2.3,2.6,3.8s0.9,3.2,0.9,5v13.4H122v-13.4c0-4-1.9-6-5.8-6h-2.9h-0.7v19.4h-5.8
			v-45.3h9.4c3.9,0,6.8,1.1,8.8,3.4c1.8,2.1,2.7,5.2,2.7,9.5c0,4.2-0.9,7.4-2.7,9.5c-0.1,0.1-0.2,0.2-0.3,0.3
			C124.7,149.2,124.5,149.3,124.4,149.4z M116.2,146.4c1.6,0,2.6-0.2,3.2-0.6c0.6-0.4,1-0.7,1.1-0.9c0.9-1.1,1.4-3.1,1.4-5.8
			c0-1.5-0.1-2.7-0.4-3.7c-0.2-0.9-0.6-1.6-1.1-2.2c-0.5-0.5-1.1-0.9-1.8-1c-0.7-0.2-1.5-0.2-2.5-0.2h-3.6v14.3h0.7L116.2,146.4
			L116.2,146.4z"/>
	</g>
</g>
</svg>
